<svg xmlns="http://www.w3.org/2000/svg" xmlns:xlink="http://www.w3.org/1999/xlink" width="597.999" height="255.694" viewBox="0 0 597.999 255.694">
  <defs>
    <linearGradient id="linear-gradient" x1="0.5" x2="0.5" y2="1" gradientUnits="objectBoundingBox">
      <stop offset="0" stop-color="#8e8e8e"/>
      <stop offset="0.498" stop-color="#f1f1f1"/>
      <stop offset="1" stop-color="#919090"/>
    </linearGradient>
    <linearGradient id="linear-gradient-4" x1="-1.002" y1="1.574" x2="-0.967" y2="1.541" gradientUnits="objectBoundingBox">
      <stop offset="0" stop-opacity="0.102"/>
      <stop offset="1" stop-opacity="0"/>
    </linearGradient>
    <linearGradient id="linear-gradient-5" x1="-0.287" y1="1.25" x2="-0.227" y2="1.229" gradientUnits="objectBoundingBox">
      <stop offset="0" stop-color="#fff" stop-opacity="0.2"/>
      <stop offset="1" stop-color="#fff" stop-opacity="0"/>
    </linearGradient>
  </defs>
  <g id="Grupo_54891" data-name="Grupo 54891" transform="translate(-529 -4166.771)">
    <text id="_100_Ω" data-name="100 Ω" transform="translate(775.503 4172.271)" fill="#12263f" font-size="16" font-family="Roboto-Black, Roboto" font-weight="800"><tspan x="0" y="17">100 Ω</tspan></text>
    <text id="_300_Ω" data-name="300 Ω" transform="translate(895.003 4172.271)" fill="#12263f" font-size="16" font-family="Roboto-Black, Roboto" font-weight="800"><tspan x="0" y="17">300 Ω</tspan></text>
    <text id="_200_Ω" data-name="200 Ω" transform="translate(1014.503 4172.271)" fill="#12263f" font-size="16" font-family="Roboto-Black, Roboto" font-weight="800"><tspan x="0" y="17">200 Ω</tspan></text>
    <g id="Grupo_54889" data-name="Grupo 54889" transform="translate(5 -1)">
      <g id="Grupo_54883" data-name="Grupo 54883" transform="translate(169.798 5.03)">
        <g id="Grupo_54846" data-name="Grupo 54846" transform="translate(598.365 4213.757) rotate(-90)">
          <path id="Trazado_105709" data-name="Trazado 105709" d="M328.951,146.641v-.118a5.118,5.118,0,0,0-.66-2.515l-.261-.135-1.456-.337-.155-1.393.849-.7V138.27l-.817-.626V136.37l.817-.663v-5.564l-.451-.389v-1.808l.451-.367v-2.826l-.464-.4-.351-.683.456-.987,1.172-.493a5.112,5.112,0,0,0,.864-2.632l-.736-.542.1-1.457.62-.564a5.114,5.114,0,0,0-2.956-4.183l-3.117-1.435V108.56a.817.817,0,0,0-.817-.817H318.22a.815.815,0,0,0-.815.817v2.818l-2.156.992-.6,5.261,1.98,7.124L314.567,141.8l.652,11.671,2.185,1.006V157.3a.815.815,0,0,0,.815.817h3.821a.817.817,0,0,0,.817-.817V154.48l3.117-1.435a5.115,5.115,0,0,0,2.911-3.841l-.244-.2-.345-.409.079-1.257Z" transform="translate(-311.31 -107.743)" fill="#f4cd8a"/>
          <path id="Trazado_105710" data-name="Trazado 105710" d="M302.471,148.951v-1.936a5.323,5.323,0,0,1,1.364-3.565l.141-.155a.833.833,0,0,0,.213-.554V123.208a.832.832,0,0,0-.213-.554l-.141-.155a5.323,5.323,0,0,1-1.364-3.565V117a5.289,5.289,0,0,1,3.035-4.8l1.653-.771-.1-.048v-2.818a.817.817,0,0,0-.817-.817h-3.821a.815.815,0,0,0-.815.817v2.818l-3.118,1.435A5.115,5.115,0,0,0,295.529,117l.438.2-.027,1.78-.427.58a5.116,5.116,0,0,0,.867,2.633l1.411.445c.021.007.4,1.456.4,1.456l-.7.483-.294.18v2.826l.325.384s-.036,1.825,0,1.789-.325.39-.325.39v5.564l.36.335v1.987l-.36.241v3.175l.667.364s-.084,1.739-.092,1.716-1.3.328-1.3.328l-.3.155a5.118,5.118,0,0,0-.66,2.515v.118s.529.474.511.463,0,1.718,0,1.718l-.446.383a5.114,5.114,0,0,0,2.911,3.841l3.118,1.435V157.3a.815.815,0,0,0,.815.817h3.821a.817.817,0,0,0,.817-.817v-2.818l.009,0-1.557-.726A5.288,5.288,0,0,1,302.471,148.951Z" transform="translate(-295.508 -107.744)" fill="#eeb865"/>
        </g>
        <g id="Grupo_54882" data-name="Grupo 54882" transform="translate(0 25.04)">
          <rect id="Rectángulo_5229" data-name="Rectángulo 5229" width="5" height="18" rx="2.5" transform="translate(609 4171)" fill="#ffa200"/>
          <rect id="Rectángulo_5230" data-name="Rectángulo 5230" width="5" height="14" rx="1" transform="translate(615 4173)" fill="#fff"/>
          <rect id="Rectángulo_5231" data-name="Rectángulo 5231" width="5" height="14" rx="1" transform="translate(628 4173)" fill="#fe0"/>
          <rect id="Rectángulo_5232" data-name="Rectángulo 5232" width="5" height="18" rx="2.5" transform="translate(634 4171)" fill="url(#linear-gradient)"/>
          <path id="Trazado_105714" data-name="Trazado 105714" d="M305.479,42.28A1.281,1.281,0,0,0,306.761,41V34.462l.01-.011a6.385,6.385,0,0,0,1.674-4.315V28.261a6.418,6.418,0,0,0-3.722-5.812l-2.372-1.092v-2a2.1,2.1,0,0,0-2.1-2.1h-.629V1.282a1.282,1.282,0,0,0-2.563,0V17.263h-.629a2.1,2.1,0,0,0-2.1,2.1v2l-2.372,1.092a6.418,6.418,0,0,0-3.723,5.812v1.874a6.385,6.385,0,0,0,1.674,4.315l.01.011V53l-.01.011a6.385,6.385,0,0,0-1.674,4.315V59.2a6.418,6.418,0,0,0,3.722,5.812l2.372,1.092v2a2.1,2.1,0,0,0,2.1,2.1h.629V86.218a1.282,1.282,0,0,0,2.563,0V70.2h.629a2.1,2.1,0,0,0,2.1-2.1v-2l2.372-1.092a6.418,6.418,0,0,0,3.722-5.812V57.323a6.385,6.385,0,0,0-1.674-4.315l-.01-.011V46.46a1.282,1.282,0,1,0-2.563,0v.048h-11.71V40.944H304.2V41a1.281,1.281,0,0,0,1.281,1.281Zm-12.444-17.5,3.117-1.435a1.282,1.282,0,0,0,.745-1.164V19.826h2.89v2.352a1.281,1.281,0,0,0,.745,1.164l3.117,1.436a3.847,3.847,0,0,1,2.2,3.019h-4.818a1.282,1.282,0,0,0,0,2.563h4.838a3.822,3.822,0,0,1-.993,2.363l-.138.151c-.035.038-.067.078-.1.119h-12.6c-.032-.04-.064-.081-.1-.119l-.138-.15a3.825,3.825,0,0,1-.993-2.363h4.758a1.282,1.282,0,1,0,0-2.563h-4.737a3.848,3.848,0,0,1,2.2-3.019Zm11.9,30.032a3.824,3.824,0,0,1,.943,2.514v.118H290.8v-.118a3.824,3.824,0,0,1,.943-2.514Zm-1.288,7.873-3.117,1.435a1.282,1.282,0,0,0-.745,1.164v2.352H296.9V65.281a1.281,1.281,0,0,0-.745-1.164l-3.117-1.435A3.849,3.849,0,0,1,290.891,60h14.9A3.85,3.85,0,0,1,303.65,62.682Zm.548-13.611v3.175h-11.71V49.071Zm-11.71-10.69V35.555H304.2v2.826Z" transform="translate(579.955 4478.24) rotate(-90)"/>
        </g>
      </g>
    </g>
    <g id="Grupo_54888" data-name="Grupo 54888" transform="translate(0 -1)">
      <g id="Grupo_54885" data-name="Grupo 54885" transform="translate(414.298 5.03)">
        <g id="Grupo_54846-2" data-name="Grupo 54846" transform="translate(598.365 4213.757) rotate(-90)">
          <path id="Trazado_105709-2" data-name="Trazado 105709" d="M328.951,146.641v-.118a5.118,5.118,0,0,0-.66-2.515l-.261-.135-1.456-.337-.155-1.393.849-.7V138.27l-.817-.626V136.37l.817-.663v-5.564l-.451-.389v-1.808l.451-.367v-2.826l-.464-.4-.351-.683.456-.987,1.172-.493a5.112,5.112,0,0,0,.864-2.632l-.736-.542.1-1.457.62-.564a5.114,5.114,0,0,0-2.956-4.183l-3.117-1.435V108.56a.817.817,0,0,0-.817-.817H318.22a.815.815,0,0,0-.815.817v2.818l-2.156.992-.6,5.261,1.98,7.124L314.567,141.8l.652,11.671,2.185,1.006V157.3a.815.815,0,0,0,.815.817h3.821a.817.817,0,0,0,.817-.817V154.48l3.117-1.435a5.115,5.115,0,0,0,2.911-3.841l-.244-.2-.345-.409.079-1.257Z" transform="translate(-311.31 -107.743)" fill="#f4cd8a"/>
          <path id="Trazado_105710-2" data-name="Trazado 105710" d="M302.471,148.951v-1.936a5.323,5.323,0,0,1,1.364-3.565l.141-.155a.833.833,0,0,0,.213-.554V123.208a.832.832,0,0,0-.213-.554l-.141-.155a5.323,5.323,0,0,1-1.364-3.565V117a5.289,5.289,0,0,1,3.035-4.8l1.653-.771-.1-.048v-2.818a.817.817,0,0,0-.817-.817h-3.821a.815.815,0,0,0-.815.817v2.818l-3.118,1.435A5.115,5.115,0,0,0,295.529,117l.438.2-.027,1.78-.427.58a5.116,5.116,0,0,0,.867,2.633l1.411.445c.021.007.4,1.456.4,1.456l-.7.483-.294.18v2.826l.325.384s-.036,1.825,0,1.789-.325.39-.325.39v5.564l.36.335v1.987l-.36.241v3.175l.667.364s-.084,1.739-.092,1.716-1.3.328-1.3.328l-.3.155a5.118,5.118,0,0,0-.66,2.515v.118s.529.474.511.463,0,1.718,0,1.718l-.446.383a5.114,5.114,0,0,0,2.911,3.841l3.118,1.435V157.3a.815.815,0,0,0,.815.817h3.821a.817.817,0,0,0,.817-.817v-2.818l.009,0-1.557-.726A5.288,5.288,0,0,1,302.471,148.951Z" transform="translate(-295.508 -107.744)" fill="#eeb865"/>
        </g>
        <g id="Grupo_54882-2" data-name="Grupo 54882" transform="translate(0 25.04)">
          <rect id="Rectángulo_5229-2" data-name="Rectángulo 5229" width="5" height="18" rx="2.5" transform="translate(609 4171)" fill="#ffa200"/>
          <rect id="Rectángulo_5230-2" data-name="Rectángulo 5230" width="5" height="14" rx="1" transform="translate(615 4173)" fill="#fff"/>
          <rect id="Rectángulo_5231-2" data-name="Rectángulo 5231" width="5" height="14" rx="1" transform="translate(628 4173)" fill="#b4100a"/>
          <rect id="Rectángulo_5232-2" data-name="Rectángulo 5232" width="5" height="18" rx="2.5" transform="translate(634 4171)" fill="url(#linear-gradient)"/>
          <path id="Trazado_105714-2" data-name="Trazado 105714" d="M305.479,42.28A1.281,1.281,0,0,0,306.761,41V34.462l.01-.011a6.385,6.385,0,0,0,1.674-4.315V28.261a6.418,6.418,0,0,0-3.722-5.812l-2.372-1.092v-2a2.1,2.1,0,0,0-2.1-2.1h-.629V1.282a1.282,1.282,0,0,0-2.563,0V17.263h-.629a2.1,2.1,0,0,0-2.1,2.1v2l-2.372,1.092a6.418,6.418,0,0,0-3.723,5.812v1.874a6.385,6.385,0,0,0,1.674,4.315l.01.011V53l-.01.011a6.385,6.385,0,0,0-1.674,4.315V59.2a6.418,6.418,0,0,0,3.722,5.812l2.372,1.092v2a2.1,2.1,0,0,0,2.1,2.1h.629V86.218a1.282,1.282,0,0,0,2.563,0V70.2h.629a2.1,2.1,0,0,0,2.1-2.1v-2l2.372-1.092a6.418,6.418,0,0,0,3.722-5.812V57.323a6.385,6.385,0,0,0-1.674-4.315l-.01-.011V46.46a1.282,1.282,0,1,0-2.563,0v.048h-11.71V40.944H304.2V41a1.281,1.281,0,0,0,1.281,1.281Zm-12.444-17.5,3.117-1.435a1.282,1.282,0,0,0,.745-1.164V19.826h2.89v2.352a1.281,1.281,0,0,0,.745,1.164l3.117,1.436a3.847,3.847,0,0,1,2.2,3.019h-4.818a1.282,1.282,0,0,0,0,2.563h4.838a3.822,3.822,0,0,1-.993,2.363l-.138.151c-.035.038-.067.078-.1.119h-12.6c-.032-.04-.064-.081-.1-.119l-.138-.15a3.825,3.825,0,0,1-.993-2.363h4.758a1.282,1.282,0,1,0,0-2.563h-4.737a3.848,3.848,0,0,1,2.2-3.019Zm11.9,30.032a3.824,3.824,0,0,1,.943,2.514v.118H290.8v-.118a3.824,3.824,0,0,1,.943-2.514Zm-1.288,7.873-3.117,1.435a1.282,1.282,0,0,0-.745,1.164v2.352H296.9V65.281a1.281,1.281,0,0,0-.745-1.164l-3.117-1.435A3.849,3.849,0,0,1,290.891,60h14.9A3.85,3.85,0,0,1,303.65,62.682Zm.548-13.611v3.175h-11.71V49.071Zm-11.71-10.69V35.555H304.2v2.826Z" transform="translate(579.955 4478.24) rotate(-90)"/>
        </g>
      </g>
    </g>
    <g id="Grupo_54890" data-name="Grupo 54890" transform="translate(0 -1)">
      <g id="Grupo_54886" data-name="Grupo 54886" transform="translate(162.253 5.03)">
        <g id="Grupo_54884" data-name="Grupo 54884" transform="translate(132.545)">
          <g id="Grupo_54846-3" data-name="Grupo 54846" transform="translate(598.365 4213.757) rotate(-90)">
            <path id="Trazado_105709-3" data-name="Trazado 105709" d="M328.951,146.641v-.118a5.118,5.118,0,0,0-.66-2.515l-.261-.135-1.456-.337-.155-1.393.849-.7V138.27l-.817-.626V136.37l.817-.663v-5.564l-.451-.389v-1.808l.451-.367v-2.826l-.464-.4-.351-.683.456-.987,1.172-.493a5.112,5.112,0,0,0,.864-2.632l-.736-.542.1-1.457.62-.564a5.114,5.114,0,0,0-2.956-4.183l-3.117-1.435V108.56a.817.817,0,0,0-.817-.817H318.22a.815.815,0,0,0-.815.817v2.818l-2.156.992-.6,5.261,1.98,7.124L314.567,141.8l.652,11.671,2.185,1.006V157.3a.815.815,0,0,0,.815.817h3.821a.817.817,0,0,0,.817-.817V154.48l3.117-1.435a5.115,5.115,0,0,0,2.911-3.841l-.244-.2-.345-.409.079-1.257Z" transform="translate(-311.31 -107.743)" fill="#f4cd8a"/>
            <path id="Trazado_105710-3" data-name="Trazado 105710" d="M302.471,148.951v-1.936a5.323,5.323,0,0,1,1.364-3.565l.141-.155a.833.833,0,0,0,.213-.554V123.208a.832.832,0,0,0-.213-.554l-.141-.155a5.323,5.323,0,0,1-1.364-3.565V117a5.289,5.289,0,0,1,3.035-4.8l1.653-.771-.1-.048v-2.818a.817.817,0,0,0-.817-.817h-3.821a.815.815,0,0,0-.815.817v2.818l-3.118,1.435A5.115,5.115,0,0,0,295.529,117l.438.2-.027,1.78-.427.58a5.116,5.116,0,0,0,.867,2.633l1.411.445c.021.007.4,1.456.4,1.456l-.7.483-.294.18v2.826l.325.384s-.036,1.825,0,1.789-.325.39-.325.39v5.564l.36.335v1.987l-.36.241v3.175l.667.364s-.084,1.739-.092,1.716-1.3.328-1.3.328l-.3.155a5.118,5.118,0,0,0-.66,2.515v.118s.529.474.511.463,0,1.718,0,1.718l-.446.383a5.114,5.114,0,0,0,2.911,3.841l3.118,1.435V157.3a.815.815,0,0,0,.815.817h3.821a.817.817,0,0,0,.817-.817v-2.818l.009,0-1.557-.726A5.288,5.288,0,0,1,302.471,148.951Z" transform="translate(-295.508 -107.744)" fill="#eeb865"/>
          </g>
          <g id="Grupo_54882-3" data-name="Grupo 54882" transform="translate(0 25.04)">
            <rect id="Rectángulo_5229-3" data-name="Rectángulo 5229" width="5" height="18" rx="2.5" transform="translate(609 4171)" fill="#ffa200"/>
            <rect id="Rectángulo_5230-3" data-name="Rectángulo 5230" width="5" height="14" rx="1" transform="translate(615 4173)" fill="#fff"/>
            <rect id="Rectángulo_5231-3" data-name="Rectángulo 5231" width="5" height="14" rx="1" transform="translate(628 4173)" fill="#fcb89d"/>
            <rect id="Rectángulo_5232-3" data-name="Rectángulo 5232" width="5" height="18" rx="2.5" transform="translate(634 4171)" fill="url(#linear-gradient)"/>
            <path id="Trazado_105714-3" data-name="Trazado 105714" d="M305.479,42.28A1.281,1.281,0,0,0,306.761,41V34.462l.01-.011a6.385,6.385,0,0,0,1.674-4.315V28.261a6.418,6.418,0,0,0-3.722-5.812l-2.372-1.092v-2a2.1,2.1,0,0,0-2.1-2.1h-.629V1.282a1.282,1.282,0,0,0-2.563,0V17.263h-.629a2.1,2.1,0,0,0-2.1,2.1v2l-2.372,1.092a6.418,6.418,0,0,0-3.723,5.812v1.874a6.385,6.385,0,0,0,1.674,4.315l.01.011V53l-.01.011a6.385,6.385,0,0,0-1.674,4.315V59.2a6.418,6.418,0,0,0,3.722,5.812l2.372,1.092v2a2.1,2.1,0,0,0,2.1,2.1h.629V86.218a1.282,1.282,0,0,0,2.563,0V70.2h.629a2.1,2.1,0,0,0,2.1-2.1v-2l2.372-1.092a6.418,6.418,0,0,0,3.722-5.812V57.323a6.385,6.385,0,0,0-1.674-4.315l-.01-.011V46.46a1.282,1.282,0,1,0-2.563,0v.048h-11.71V40.944H304.2V41a1.281,1.281,0,0,0,1.281,1.281Zm-12.444-17.5,3.117-1.435a1.282,1.282,0,0,0,.745-1.164V19.826h2.89v2.352a1.281,1.281,0,0,0,.745,1.164l3.117,1.436a3.847,3.847,0,0,1,2.2,3.019h-4.818a1.282,1.282,0,0,0,0,2.563h4.838a3.822,3.822,0,0,1-.993,2.363l-.138.151c-.035.038-.067.078-.1.119h-12.6c-.032-.04-.064-.081-.1-.119l-.138-.15a3.825,3.825,0,0,1-.993-2.363h4.758a1.282,1.282,0,1,0,0-2.563h-4.737a3.848,3.848,0,0,1,2.2-3.019Zm11.9,30.032a3.824,3.824,0,0,1,.943,2.514v.118H290.8v-.118a3.824,3.824,0,0,1,.943-2.514Zm-1.288,7.873-3.117,1.435a1.282,1.282,0,0,0-.745,1.164v2.352H296.9V65.281a1.281,1.281,0,0,0-.745-1.164l-3.117-1.435A3.849,3.849,0,0,1,290.891,60h14.9A3.85,3.85,0,0,1,303.65,62.682Zm.548-13.611v3.175h-11.71V49.071Zm-11.71-10.69V35.555H304.2v2.826Z" transform="translate(579.955 4478.24) rotate(-90)"/>
          </g>
        </g>
      </g>
    </g>
    <text id="_9V" data-name="9V" transform="translate(529 4342.24)" fill="#12263f" font-size="16" font-family="Roboto-Black, Roboto" font-weight="800"><tspan x="0" y="17">9V</tspan></text>
    <path id="Trazado_105756" data-name="Trazado 105756" d="M-8236.471-7697.776v-65.637H-8411v210.878h537v-210.878h-48.912v65.637h-75.728v-65.637h-45.79v65.637h-73.646v-65.637h-45.791v65.637Z" transform="translate(8999 11973)" fill="none" stroke="#3c4fa1" stroke-linejoin="bevel" stroke-width="4"/>
    <g id="switch" transform="translate(586.025 4167.271)">
      <path id="Trazado_105746" data-name="Trazado 105746" d="M110.646,0H69.831A5.837,5.837,0,0,0,64,5.831V64.139a5.837,5.837,0,0,0,5.831,5.831h40.816a5.837,5.837,0,0,0,5.831-5.831V5.831A5.837,5.837,0,0,0,110.646,0Z" fill="#303c42"/>
      <path id="Trazado_105747" data-name="Trazado 105747" d="M131.98,82.557a2.918,2.918,0,0,1-2.915,2.915H88.249a2.918,2.918,0,0,1-2.915-2.915V24.249a2.918,2.918,0,0,1,2.915-2.915h40.816a2.918,2.918,0,0,1,2.915,2.915Z" transform="translate(-18.419 -18.419)" fill="#f2f2f2"/>
      <path id="Trazado_105748" data-name="Trazado 105748" d="M209.492,143.8V129.458A1.457,1.457,0,0,0,208.035,128H193.458A1.457,1.457,0,0,0,192,129.458v29.154a1.457,1.457,0,0,0,1.458,1.458h13.119a1.462,1.462,0,0,0,1.167-.584l4.373-5.831a1.464,1.464,0,0,0,.216-1.335Z" transform="translate(-110.508 -110.508)" fill="#303c42"/>
      <path id="Trazado_105749" data-name="Trazado 105749" d="M233.028,261.831H222.834L219.917,256h11.168Z" transform="translate(-134.609 -221.015)" fill="#e6e6e6"/>
      <path id="Trazado_105750" data-name="Trazado 105750" d="M213.333,294.539v-4.032l1.21,2.419Z" transform="translate(-128.925 -250.806)" fill="#f2f2f2"/>
      <path id="Trazado_105751" data-name="Trazado 105751" d="M213.333,294.539v-4.032l1.21,2.419Z" transform="translate(-128.925 -250.806)" fill="#fff" opacity="0.7"/>
      <g id="Grupo_54887" data-name="Grupo 54887" transform="translate(84.408 20.408)">
        <rect id="Rectángulo_5233" data-name="Rectángulo 5233" width="11.662" height="11.662" fill="#e6e6e6"/>
        <path id="Trazado_105752" data-name="Trazado 105752" d="M233.479,322.915h-9.474L226.192,320h9.474Z" transform="translate(-222.547 -296.677)" fill="#e6e6e6"/>
      </g>
      <path id="Trazado_105753" data-name="Trazado 105753" d="M233.479,322.915h-9.474L226.192,320h9.474Z" transform="translate(-138.139 -276.269)" opacity="0.2"/>
      <circle id="Elipse_4071" data-name="Elipse 4071" cx="2.915" cy="2.915" r="2.915" transform="translate(87.323 5.831)" fill="#303c42"/>
      <path id="Trazado_105754" data-name="Trazado 105754" d="M213.157,243.6,216,252.125a1.464,1.464,0,0,1-.216,1.335l-4.373,5.831a1.462,1.462,0,0,1-1.167.584H197.123a1.428,1.428,0,0,1-.878-.323l17.816,17.816h10.758a2.918,2.918,0,0,0,2.915-2.915V258.181Z" transform="translate(-114.172 -210.313)" fill="url(#linear-gradient-4)"/>
      <circle id="Elipse_4072" data-name="Elipse 4072" cx="2.915" cy="2.915" r="2.915" transform="translate(87.323 58.308)" fill="#303c42"/>
      <path id="Trazado_105755" data-name="Trazado 105755" d="M110.646,0H69.831A5.837,5.837,0,0,0,64,5.831V64.139a5.837,5.837,0,0,0,5.831,5.831h40.816a5.837,5.837,0,0,0,5.831-5.831V5.831A5.837,5.837,0,0,0,110.646,0Z" stroke="#000" stroke-width="1" fill="url(#linear-gradient-5)"/>
    </g>
    <g id="Grupo_54881" data-name="Grupo 54881" transform="translate(-110 53)">
      <g id="Grupo_54880" data-name="Grupo 54880" transform="translate(-122.627 3382.74)">
        <g id="battery" transform="translate(688.133 864.186)">
          <path id="Trazado_105683" data-name="Trazado 105683" d="M159.945,152.281h-42.37A5.575,5.575,0,0,1,112,146.706V77.575A5.575,5.575,0,0,1,117.575,72h42.37a5.575,5.575,0,0,1,5.575,5.575v69.131A5.575,5.575,0,0,1,159.945,152.281Z" transform="translate(-6.513 -58.62)" fill="#afafaf"/>
          <path id="Trazado_105684" data-name="Trazado 105684" d="M343.008,77.575v69.131a5.575,5.575,0,0,1-5.575,5.575H330a5.575,5.575,0,0,0,5.575-5.575V77.575A5.575,5.575,0,0,0,330,72h7.433A5.575,5.575,0,0,1,343.008,77.575Z" transform="translate(-184.001 -58.62)" fill="#8a8a8a"/>
          <path id="Trazado_105685" data-name="Trazado 105685" d="M0,0H32.707V38.653H0Z" transform="translate(151.573 53.52) rotate(90)" fill="#4a4a4a"/>
          <path id="Trazado_105744" data-name="Trazado 105744" d="M0,0H32.707V38.653H0Z" transform="translate(151.573 20.813) rotate(90)" fill="#f39e1d"/>
          <path id="Trazado_105686" data-name="Trazado 105686" d="M320,112h7.433v32.707H320Z" transform="translate(-175.86 -58.48)" fill="#3d3d3d"/>
          <path id="Trazado_105745" data-name="Trazado 105745" d="M320,112h7.433v32.707H320Z" transform="translate(-175.86 -91.187)" fill="#ea5c23"/>
          <path id="Trazado_105687" data-name="Trazado 105687" d="M205.734,19.893H176V11.717A3.717,3.717,0,0,1,179.717,8h22.3a3.717,3.717,0,0,1,3.717,3.717Z" transform="translate(-58.62 -6.513)" fill="#afafaf"/>
          <path id="Trazado_105688" data-name="Trazado 105688" d="M287.15,11.717v8.177h-7.433V11.717A3.716,3.716,0,0,0,276,8h7.433A3.716,3.716,0,0,1,287.15,11.717Z" transform="translate(-140.036 -6.513)" fill="#8a8a8a"/>
          <path id="Trazado_105690" data-name="Trazado 105690" d="M153.432,11.893H148.6V5.2A5.209,5.209,0,0,0,143.4,0H121.1a5.209,5.209,0,0,0-5.2,5.2v6.69h-4.832A7.07,7.07,0,0,0,104,18.955V88.086a7.07,7.07,0,0,0,7.062,7.062h42.37a7.07,7.07,0,0,0,7.062-7.062V18.955A7.07,7.07,0,0,0,153.432,11.893ZM118.867,5.2a2.233,2.233,0,0,1,2.23-2.23h22.3a2.233,2.233,0,0,1,2.23,2.23v6.69h-26.76ZM157.52,88.086a4.093,4.093,0,0,1-4.088,4.088h-42.37a4.093,4.093,0,0,1-4.088-4.088V18.955a4.093,4.093,0,0,1,4.088-4.088h42.37a4.093,4.093,0,0,1,4.088,4.088Z" transform="translate(0)"/>
          <path id="Trazado_105691" data-name="Trazado 105691" d="M184.14,104H145.487A1.487,1.487,0,0,0,144,105.487V170.9a1.487,1.487,0,0,0,1.487,1.487H184.14a1.487,1.487,0,0,0,1.487-1.487V105.487A1.487,1.487,0,0,0,184.14,104Zm-1.487,65.414h-35.68V106.973h35.68Z" transform="translate(-32.567 -84.673)"/>
        </g>
        <text id="_" data-name="+" transform="translate(815 890.759)" font-size="20" font-family="Roboto-Black, Roboto" font-weight="800"><tspan x="-5.342" y="21">+</tspan></text>
        <text id="_-" data-name="-" transform="translate(815 920)" font-size="20" font-family="Roboto-Black, Roboto" font-weight="800"><tspan x="-4.497" y="21">-</tspan></text>
      </g>
    </g>
    <g id="Rectángulo_5234" data-name="Rectángulo 5234" transform="translate(769 4263)" fill="#ffd500" stroke="#2a2a2a" stroke-width="3">
      <rect width="61" height="25" rx="12.5" stroke="none"/>
      <rect x="1.5" y="1.5" width="58" height="22" rx="11" fill="none"/>
    </g>
    <g id="Rectángulo_5235" data-name="Rectángulo 5235" transform="translate(888 4263)" fill="#ffd500" stroke="#2a2a2a" stroke-width="3">
      <rect width="61" height="25" rx="12.5" stroke="none"/>
      <rect x="1.5" y="1.5" width="58" height="22" rx="11" fill="none"/>
    </g>
    <g id="Rectángulo_5236" data-name="Rectángulo 5236" transform="translate(1008 4263)" fill="#ffd500" stroke="#2a2a2a" stroke-width="3">
      <rect width="61" height="25" rx="12.5" stroke="none"/>
      <rect x="1.5" y="1.5" width="58" height="22" rx="11" fill="none"/>
    </g>
    <text id="_1.5_V" data-name="1.5 V" transform="translate(778.503 4268)" fill="#12263f" font-size="13" font-family="Roboto-Black, Roboto" font-weight="800"><tspan x="-15.406" y="14">1.5 V</tspan></text>
    <text id="_4.5_V" data-name="4.5 V" transform="translate(898 4268)" fill="#12263f" font-size="13" font-family="Roboto-Black, Roboto" font-weight="800"><tspan x="-15.406" y="14">4.5 V</tspan></text>
    <text id="_3_V" data-name="3 V" transform="translate(1022.5 4268)" fill="#12263f" font-size="13" font-family="Roboto-Black, Roboto" font-weight="800"><tspan x="-9.677" y="14">3 V</tspan></text>
  </g>
</svg>
