<svg xmlns="http://www.w3.org/2000/svg" xmlns:xlink="http://www.w3.org/1999/xlink" width="497" height="232.52" viewBox="0 0 497 232.52">
  <defs>
    <linearGradient id="linear-gradient" x1="0.5" x2="0.5" y2="1" gradientUnits="objectBoundingBox">
      <stop offset="0" stop-color="#8e8e8e"/>
      <stop offset="0.498" stop-color="#f1f1f1"/>
      <stop offset="1" stop-color="#919090"/>
    </linearGradient>
    <linearGradient id="linear-gradient-4" x1="-1.002" y1="1.574" x2="-0.967" y2="1.541" gradientUnits="objectBoundingBox">
      <stop offset="0" stop-opacity="0.102"/>
      <stop offset="1" stop-opacity="0"/>
    </linearGradient>
    <linearGradient id="linear-gradient-5" x1="-0.287" y1="1.25" x2="-0.227" y2="1.229" gradientUnits="objectBoundingBox">
      <stop offset="0" stop-color="#fff" stop-opacity="0.2"/>
      <stop offset="1" stop-color="#fff" stop-opacity="0"/>
    </linearGradient>
  </defs>
  <g id="Grupo_54932" data-name="Grupo 54932" transform="translate(10101 6397.372)">
    <text id="_9V" data-name="9V" transform="translate(-10059.103 -6283)" fill="#12263f" font-size="16" font-family="Roboto-Black, Roboto" font-weight="800"><tspan x="0" y="17">9V</tspan></text>
    <g id="Grupo_54888" data-name="Grupo 54888" transform="translate(-5525.78 -7305.035) rotate(90)">
      <g id="Grupo_54885" data-name="Grupo 54885" transform="translate(414.298 5.03)">
        <g id="Grupo_54846" data-name="Grupo 54846" transform="translate(598.365 4213.757) rotate(-90)">
          <path id="Trazado_105709" data-name="Trazado 105709" d="M328.951,146.641v-.118a5.118,5.118,0,0,0-.66-2.515l-.261-.135-1.456-.337-.155-1.393.849-.7V138.27l-.817-.626V136.37l.817-.663v-5.564l-.451-.389v-1.808l.451-.367v-2.826l-.464-.4-.351-.683.456-.987,1.172-.493a5.112,5.112,0,0,0,.864-2.632l-.736-.542.1-1.457.62-.564a5.114,5.114,0,0,0-2.956-4.183l-3.117-1.435V108.56a.817.817,0,0,0-.817-.817H318.22a.815.815,0,0,0-.815.817v2.818l-2.156.992-.6,5.261,1.98,7.124L314.567,141.8l.652,11.671,2.185,1.006V157.3a.815.815,0,0,0,.815.817h3.821a.817.817,0,0,0,.817-.817V154.48l3.117-1.435a5.115,5.115,0,0,0,2.911-3.841l-.244-.2-.345-.409.079-1.257Z" transform="translate(-311.31 -107.743)" fill="#f4cd8a"/>
          <path id="Trazado_105710" data-name="Trazado 105710" d="M302.471,148.951v-1.936a5.323,5.323,0,0,1,1.364-3.565l.141-.155a.833.833,0,0,0,.213-.554V123.208a.832.832,0,0,0-.213-.554l-.141-.155a5.323,5.323,0,0,1-1.364-3.565V117a5.289,5.289,0,0,1,3.035-4.8l1.653-.771-.1-.048v-2.818a.817.817,0,0,0-.817-.817h-3.821a.815.815,0,0,0-.815.817v2.818l-3.118,1.435A5.115,5.115,0,0,0,295.529,117l.438.2-.027,1.78-.427.58a5.116,5.116,0,0,0,.867,2.633l1.411.445c.021.007.4,1.456.4,1.456l-.7.483-.294.18v2.826l.325.384s-.036,1.825,0,1.789-.325.39-.325.39v5.564l.36.335v1.987l-.36.241v3.175l.667.364s-.084,1.739-.092,1.716-1.3.328-1.3.328l-.3.155a5.118,5.118,0,0,0-.66,2.515v.118s.529.474.511.463,0,1.718,0,1.718l-.446.383a5.114,5.114,0,0,0,2.911,3.841l3.118,1.435V157.3a.815.815,0,0,0,.815.817h3.821a.817.817,0,0,0,.817-.817v-2.818l.009,0-1.557-.726A5.288,5.288,0,0,1,302.471,148.951Z" transform="translate(-295.508 -107.744)" fill="#eeb865"/>
        </g>
        <g id="Grupo_54882" data-name="Grupo 54882" transform="translate(0 25.04)">
          <rect id="Rectángulo_5229" data-name="Rectángulo 5229" width="5" height="18" rx="2.5" transform="translate(609 4171)" fill="#ffa200"/>
          <rect id="Rectángulo_5230" data-name="Rectángulo 5230" width="5" height="14" rx="1" transform="translate(615 4173)" fill="#fff"/>
          <rect id="Rectángulo_5231" data-name="Rectángulo 5231" width="5" height="14" rx="1" transform="translate(628 4173)" fill="#b4100a"/>
          <rect id="Rectángulo_5232" data-name="Rectángulo 5232" width="5" height="18" rx="2.5" transform="translate(634 4171)" fill="url(#linear-gradient)"/>
          <path id="Trazado_105714" data-name="Trazado 105714" d="M305.479,42.28A1.281,1.281,0,0,0,306.761,41V34.462l.01-.011a6.385,6.385,0,0,0,1.674-4.315V28.261a6.418,6.418,0,0,0-3.722-5.812l-2.372-1.092v-2a2.1,2.1,0,0,0-2.1-2.1h-.629V1.282a1.282,1.282,0,0,0-2.563,0V17.263h-.629a2.1,2.1,0,0,0-2.1,2.1v2l-2.372,1.092a6.418,6.418,0,0,0-3.723,5.812v1.874a6.385,6.385,0,0,0,1.674,4.315l.01.011V53l-.01.011a6.385,6.385,0,0,0-1.674,4.315V59.2a6.418,6.418,0,0,0,3.722,5.812l2.372,1.092v2a2.1,2.1,0,0,0,2.1,2.1h.629V86.218a1.282,1.282,0,0,0,2.563,0V70.2h.629a2.1,2.1,0,0,0,2.1-2.1v-2l2.372-1.092a6.418,6.418,0,0,0,3.722-5.812V57.323a6.385,6.385,0,0,0-1.674-4.315l-.01-.011V46.46a1.282,1.282,0,1,0-2.563,0v.048h-11.71V40.944H304.2V41a1.281,1.281,0,0,0,1.281,1.281Zm-12.444-17.5,3.117-1.435a1.282,1.282,0,0,0,.745-1.164V19.826h2.89v2.352a1.281,1.281,0,0,0,.745,1.164l3.117,1.436a3.847,3.847,0,0,1,2.2,3.019h-4.818a1.282,1.282,0,0,0,0,2.563h4.838a3.822,3.822,0,0,1-.993,2.363l-.138.151c-.035.038-.067.078-.1.119h-12.6c-.032-.04-.064-.081-.1-.119l-.138-.15a3.825,3.825,0,0,1-.993-2.363h4.758a1.282,1.282,0,1,0,0-2.563h-4.737a3.848,3.848,0,0,1,2.2-3.019Zm11.9,30.032a3.824,3.824,0,0,1,.943,2.514v.118H290.8v-.118a3.824,3.824,0,0,1,.943-2.514Zm-1.288,7.873-3.117,1.435a1.282,1.282,0,0,0-.745,1.164v2.352H296.9V65.281a1.281,1.281,0,0,0-.745-1.164l-3.117-1.435A3.849,3.849,0,0,1,290.891,60h14.9A3.85,3.85,0,0,1,303.65,62.682Zm.548-13.611v3.175h-11.71V49.071Zm-11.71-10.69V35.555H304.2v2.826Z" transform="translate(579.955 4478.24) rotate(-90)"/>
        </g>
      </g>
    </g>
    <text id="_1_Ω" data-name="1 Ω" transform="translate(-9991 -6256.532)" fill="#12263f" font-size="16" font-family="Roboto-Black, Roboto" font-weight="800"><tspan x="0" y="17">1 Ω</tspan></text>
    <text id="_2_Ω" data-name="2 Ω" transform="translate(-9910.025 -6256.532)" fill="#12263f" font-size="16" font-family="Roboto-Black, Roboto" font-weight="800"><tspan x="0" y="17">2 Ω</tspan></text>
    <text id="_3_Ω" data-name="3 Ω" transform="translate(-9775 -6275.532)" fill="#12263f" font-size="16" font-family="Roboto-Black, Roboto" font-weight="800"><tspan x="0" y="17">3 Ω</tspan></text>
    <g id="Grupo_54890" data-name="Grupo 54890" transform="translate(-5659.032 -7165.535) rotate(90)">
      <g id="Grupo_54886" data-name="Grupo 54886" transform="translate(162.253 5.03)">
        <g id="Grupo_54884" data-name="Grupo 54884" transform="translate(132.545)">
          <g id="Grupo_54846-2" data-name="Grupo 54846" transform="translate(598.365 4213.757) rotate(-90)">
            <path id="Trazado_105709-2" data-name="Trazado 105709" d="M328.951,146.641v-.118a5.118,5.118,0,0,0-.66-2.515l-.261-.135-1.456-.337-.155-1.393.849-.7V138.27l-.817-.626V136.37l.817-.663v-5.564l-.451-.389v-1.808l.451-.367v-2.826l-.464-.4-.351-.683.456-.987,1.172-.493a5.112,5.112,0,0,0,.864-2.632l-.736-.542.1-1.457.62-.564a5.114,5.114,0,0,0-2.956-4.183l-3.117-1.435V108.56a.817.817,0,0,0-.817-.817H318.22a.815.815,0,0,0-.815.817v2.818l-2.156.992-.6,5.261,1.98,7.124L314.567,141.8l.652,11.671,2.185,1.006V157.3a.815.815,0,0,0,.815.817h3.821a.817.817,0,0,0,.817-.817V154.48l3.117-1.435a5.115,5.115,0,0,0,2.911-3.841l-.244-.2-.345-.409.079-1.257Z" transform="translate(-311.31 -107.743)" fill="#f4cd8a"/>
            <path id="Trazado_105710-2" data-name="Trazado 105710" d="M302.471,148.951v-1.936a5.323,5.323,0,0,1,1.364-3.565l.141-.155a.833.833,0,0,0,.213-.554V123.208a.832.832,0,0,0-.213-.554l-.141-.155a5.323,5.323,0,0,1-1.364-3.565V117a5.289,5.289,0,0,1,3.035-4.8l1.653-.771-.1-.048v-2.818a.817.817,0,0,0-.817-.817h-3.821a.815.815,0,0,0-.815.817v2.818l-3.118,1.435A5.115,5.115,0,0,0,295.529,117l.438.2-.027,1.78-.427.58a5.116,5.116,0,0,0,.867,2.633l1.411.445c.021.007.4,1.456.4,1.456l-.7.483-.294.18v2.826l.325.384s-.036,1.825,0,1.789-.325.39-.325.39v5.564l.36.335v1.987l-.36.241v3.175l.667.364s-.084,1.739-.092,1.716-1.3.328-1.3.328l-.3.155a5.118,5.118,0,0,0-.66,2.515v.118s.529.474.511.463,0,1.718,0,1.718l-.446.383a5.114,5.114,0,0,0,2.911,3.841l3.118,1.435V157.3a.815.815,0,0,0,.815.817h3.821a.817.817,0,0,0,.817-.817v-2.818l.009,0-1.557-.726A5.288,5.288,0,0,1,302.471,148.951Z" transform="translate(-295.508 -107.744)" fill="#eeb865"/>
          </g>
          <g id="Grupo_54882-2" data-name="Grupo 54882" transform="translate(0 25.04)">
            <rect id="Rectángulo_5229-2" data-name="Rectángulo 5229" width="5" height="18" rx="2.5" transform="translate(609 4171)" fill="#ffa200"/>
            <rect id="Rectángulo_5230-2" data-name="Rectángulo 5230" width="5" height="14" rx="1" transform="translate(615 4173)" fill="#fff"/>
            <rect id="Rectángulo_5231-2" data-name="Rectángulo 5231" width="5" height="14" rx="1" transform="translate(628 4173)" fill="#fcb89d"/>
            <rect id="Rectángulo_5232-2" data-name="Rectángulo 5232" width="5" height="18" rx="2.5" transform="translate(634 4171)" fill="url(#linear-gradient)"/>
            <path id="Trazado_105714-2" data-name="Trazado 105714" d="M305.479,42.28A1.281,1.281,0,0,0,306.761,41V34.462l.01-.011a6.385,6.385,0,0,0,1.674-4.315V28.261a6.418,6.418,0,0,0-3.722-5.812l-2.372-1.092v-2a2.1,2.1,0,0,0-2.1-2.1h-.629V1.282a1.282,1.282,0,0,0-2.563,0V17.263h-.629a2.1,2.1,0,0,0-2.1,2.1v2l-2.372,1.092a6.418,6.418,0,0,0-3.723,5.812v1.874a6.385,6.385,0,0,0,1.674,4.315l.01.011V53l-.01.011a6.385,6.385,0,0,0-1.674,4.315V59.2a6.418,6.418,0,0,0,3.722,5.812l2.372,1.092v2a2.1,2.1,0,0,0,2.1,2.1h.629V86.218a1.282,1.282,0,0,0,2.563,0V70.2h.629a2.1,2.1,0,0,0,2.1-2.1v-2l2.372-1.092a6.418,6.418,0,0,0,3.722-5.812V57.323a6.385,6.385,0,0,0-1.674-4.315l-.01-.011V46.46a1.282,1.282,0,1,0-2.563,0v.048h-11.71V40.944H304.2V41a1.281,1.281,0,0,0,1.281,1.281Zm-12.444-17.5,3.117-1.435a1.282,1.282,0,0,0,.745-1.164V19.826h2.89v2.352a1.281,1.281,0,0,0,.745,1.164l3.117,1.436a3.847,3.847,0,0,1,2.2,3.019h-4.818a1.282,1.282,0,0,0,0,2.563h4.838a3.822,3.822,0,0,1-.993,2.363l-.138.151c-.035.038-.067.078-.1.119h-12.6c-.032-.04-.064-.081-.1-.119l-.138-.15a3.825,3.825,0,0,1-.993-2.363h4.758a1.282,1.282,0,1,0,0-2.563h-4.737a3.848,3.848,0,0,1,2.2-3.019Zm11.9,30.032a3.824,3.824,0,0,1,.943,2.514v.118H290.8v-.118a3.824,3.824,0,0,1,.943-2.514Zm-1.288,7.873-3.117,1.435a1.282,1.282,0,0,0-.745,1.164v2.352H296.9V65.281a1.281,1.281,0,0,0-.745-1.164l-3.117-1.435A3.849,3.849,0,0,1,290.891,60h14.9A3.85,3.85,0,0,1,303.65,62.682Zm.548-13.611v3.175h-11.71V49.071Zm-11.71-10.69V35.555H304.2v2.826Z" transform="translate(579.955 4478.24) rotate(-90)"/>
          </g>
        </g>
      </g>
    </g>
    <g id="Grupo_54931" data-name="Grupo 54931" transform="translate(-5740.135 -7165.535) rotate(90)">
      <g id="Grupo_54886-2" data-name="Grupo 54886" transform="translate(162.253 5.03)">
        <g id="Grupo_54884-2" data-name="Grupo 54884" transform="translate(132.545)">
          <g id="Grupo_54846-3" data-name="Grupo 54846" transform="translate(598.365 4213.757) rotate(-90)">
            <path id="Trazado_105709-3" data-name="Trazado 105709" d="M328.951,146.641v-.118a5.118,5.118,0,0,0-.66-2.515l-.261-.135-1.456-.337-.155-1.393.849-.7V138.27l-.817-.626V136.37l.817-.663v-5.564l-.451-.389v-1.808l.451-.367v-2.826l-.464-.4-.351-.683.456-.987,1.172-.493a5.112,5.112,0,0,0,.864-2.632l-.736-.542.1-1.457.62-.564a5.114,5.114,0,0,0-2.956-4.183l-3.117-1.435V108.56a.817.817,0,0,0-.817-.817H318.22a.815.815,0,0,0-.815.817v2.818l-2.156.992-.6,5.261,1.98,7.124L314.567,141.8l.652,11.671,2.185,1.006V157.3a.815.815,0,0,0,.815.817h3.821a.817.817,0,0,0,.817-.817V154.48l3.117-1.435a5.115,5.115,0,0,0,2.911-3.841l-.244-.2-.345-.409.079-1.257Z" transform="translate(-311.31 -107.743)" fill="#f4cd8a"/>
            <path id="Trazado_105710-3" data-name="Trazado 105710" d="M302.471,148.951v-1.936a5.323,5.323,0,0,1,1.364-3.565l.141-.155a.833.833,0,0,0,.213-.554V123.208a.832.832,0,0,0-.213-.554l-.141-.155a5.323,5.323,0,0,1-1.364-3.565V117a5.289,5.289,0,0,1,3.035-4.8l1.653-.771-.1-.048v-2.818a.817.817,0,0,0-.817-.817h-3.821a.815.815,0,0,0-.815.817v2.818l-3.118,1.435A5.115,5.115,0,0,0,295.529,117l.438.2-.027,1.78-.427.58a5.116,5.116,0,0,0,.867,2.633l1.411.445c.021.007.4,1.456.4,1.456l-.7.483-.294.18v2.826l.325.384s-.036,1.825,0,1.789-.325.39-.325.39v5.564l.36.335v1.987l-.36.241v3.175l.667.364s-.084,1.739-.092,1.716-1.3.328-1.3.328l-.3.155a5.118,5.118,0,0,0-.66,2.515v.118s.529.474.511.463,0,1.718,0,1.718l-.446.383a5.114,5.114,0,0,0,2.911,3.841l3.118,1.435V157.3a.815.815,0,0,0,.815.817h3.821a.817.817,0,0,0,.817-.817v-2.818l.009,0-1.557-.726A5.288,5.288,0,0,1,302.471,148.951Z" transform="translate(-295.508 -107.744)" fill="#eeb865"/>
          </g>
          <g id="Grupo_54882-3" data-name="Grupo 54882" transform="translate(0 25.04)">
            <rect id="Rectángulo_5229-3" data-name="Rectángulo 5229" width="5" height="18" rx="2.5" transform="translate(609 4171)" fill="#ffa200"/>
            <rect id="Rectángulo_5230-3" data-name="Rectángulo 5230" width="5" height="14" rx="1" transform="translate(615 4173)" fill="#fff"/>
            <rect id="Rectángulo_5231-3" data-name="Rectángulo 5231" width="5" height="14" rx="1" transform="translate(628 4173)" fill="#fcb89d"/>
            <rect id="Rectángulo_5232-3" data-name="Rectángulo 5232" width="5" height="18" rx="2.5" transform="translate(634 4171)" fill="url(#linear-gradient)"/>
            <path id="Trazado_105714-3" data-name="Trazado 105714" d="M305.479,42.28A1.281,1.281,0,0,0,306.761,41V34.462l.01-.011a6.385,6.385,0,0,0,1.674-4.315V28.261a6.418,6.418,0,0,0-3.722-5.812l-2.372-1.092v-2a2.1,2.1,0,0,0-2.1-2.1h-.629V1.282a1.282,1.282,0,0,0-2.563,0V17.263h-.629a2.1,2.1,0,0,0-2.1,2.1v2l-2.372,1.092a6.418,6.418,0,0,0-3.723,5.812v1.874a6.385,6.385,0,0,0,1.674,4.315l.01.011V53l-.01.011a6.385,6.385,0,0,0-1.674,4.315V59.2a6.418,6.418,0,0,0,3.722,5.812l2.372,1.092v2a2.1,2.1,0,0,0,2.1,2.1h.629V86.218a1.282,1.282,0,0,0,2.563,0V70.2h.629a2.1,2.1,0,0,0,2.1-2.1v-2l2.372-1.092a6.418,6.418,0,0,0,3.722-5.812V57.323a6.385,6.385,0,0,0-1.674-4.315l-.01-.011V46.46a1.282,1.282,0,1,0-2.563,0v.048h-11.71V40.944H304.2V41a1.281,1.281,0,0,0,1.281,1.281Zm-12.444-17.5,3.117-1.435a1.282,1.282,0,0,0,.745-1.164V19.826h2.89v2.352a1.281,1.281,0,0,0,.745,1.164l3.117,1.436a3.847,3.847,0,0,1,2.2,3.019h-4.818a1.282,1.282,0,0,0,0,2.563h4.838a3.822,3.822,0,0,1-.993,2.363l-.138.151c-.035.038-.067.078-.1.119h-12.6c-.032-.04-.064-.081-.1-.119l-.138-.15a3.825,3.825,0,0,1-.993-2.363h4.758a1.282,1.282,0,1,0,0-2.563h-4.737a3.848,3.848,0,0,1,2.2-3.019Zm11.9,30.032a3.824,3.824,0,0,1,.943,2.514v.118H290.8v-.118a3.824,3.824,0,0,1,.943-2.514Zm-1.288,7.873-3.117,1.435a1.282,1.282,0,0,0-.745,1.164v2.352H296.9V65.281a1.281,1.281,0,0,0-.745-1.164l-3.117-1.435A3.849,3.849,0,0,1,290.891,60h14.9A3.85,3.85,0,0,1,303.65,62.682Zm.548-13.611v3.175h-11.71V49.071Zm-11.71-10.69V35.555H304.2v2.826Z" transform="translate(579.955 4478.24) rotate(-90)"/>
          </g>
        </g>
      </g>
    </g>
    <path id="Trazado_105787" data-name="Trazado 105787" d="M-9694.5-6666H-9788v-43h-311v132h51v53h442v-137h-67v46h-21.5Z" transform="translate(0 343)" fill="none" stroke="#3c4fa1" stroke-linecap="round" stroke-linejoin="round" stroke-width="4"/>
    <path id="Trazado_105788" data-name="Trazado 105788" d="M-9950.1-6709v75.218" transform="translate(0 343)" fill="none" stroke="#3c4fa1" stroke-linecap="round" stroke-width="4"/>
    <path id="Trazado_105789" data-name="Trazado 105789" d="M-9950.1-6709v75.218" transform="translate(81.102 343)" fill="none" stroke="#3c4fa1" stroke-linecap="round" stroke-width="4"/>
    <path id="Trazado_105792" data-name="Trazado 105792" d="M-9950.1-6709v16.5" transform="translate(214.354 387.5)" fill="none" stroke="#3c4fa1" stroke-linecap="round" stroke-width="4"/>
    <path id="Trazado_105793" data-name="Trazado 105793" d="M-9950.1-6709v48" transform="translate(214.354 480)" fill="none" stroke="#3c4fa1" stroke-linecap="round" stroke-width="4"/>
    <path id="Trazado_105791" data-name="Trazado 105791" d="M-9950.1-6709v22.282" transform="translate(0 505.718)" fill="none" stroke="#3c4fa1" stroke-linecap="round" stroke-width="4"/>
    <path id="Trazado_105790" data-name="Trazado 105790" d="M-9950.1-6709v22.282" transform="translate(81.102 505.718)" fill="none" stroke="#3c4fa1" stroke-linecap="round" stroke-width="4"/>
    <g id="Rectángulo_5235" data-name="Rectángulo 5235" transform="translate(-9820 -6330)" fill="#ffd500" stroke="#2a2a2a" stroke-width="3">
      <rect width="61" height="25" rx="12.5" stroke="none"/>
      <rect x="1.5" y="1.5" width="58" height="22" rx="11" fill="none"/>
    </g>
    <g id="Rectángulo_5251" data-name="Rectángulo 5251" transform="translate(-9899 -6330)" fill="#ffd500" stroke="#2a2a2a" stroke-width="3">
      <rect width="61" height="25" rx="12.5" stroke="none"/>
      <rect x="1.5" y="1.5" width="58" height="22" rx="11" fill="none"/>
    </g>
    <g id="Rectángulo_5252" data-name="Rectángulo 5252" transform="translate(-9981 -6330)" fill="#ffd500" stroke="#2a2a2a" stroke-width="3">
      <rect width="61" height="25" rx="12.5" stroke="none"/>
      <rect x="1.5" y="1.5" width="58" height="22" rx="11" fill="none"/>
    </g>
    <g id="Rectángulo_5236" data-name="Rectángulo 5236" transform="translate(-9714 -6285)" fill="#ffd500" stroke="#2a2a2a" stroke-width="3">
      <rect width="61" height="25" rx="12.5" stroke="none"/>
      <rect x="1.5" y="1.5" width="58" height="22" rx="11" fill="none"/>
    </g>
    <g id="switch" transform="translate(-10081.308 -6396.872)">
      <path id="Trazado_105746" data-name="Trazado 105746" d="M105.162,0H69.145A5.151,5.151,0,0,0,64,5.145V56.6a5.151,5.151,0,0,0,5.145,5.145h36.017a5.151,5.151,0,0,0,5.145-5.145V5.145A5.151,5.151,0,0,0,105.162,0Z" fill="#303c42"/>
      <path id="Trazado_105747" data-name="Trazado 105747" d="M126.5,75.359a2.575,2.575,0,0,1-2.573,2.573H87.907a2.575,2.575,0,0,1-2.573-2.573V23.907a2.575,2.575,0,0,1,2.573-2.573h36.017a2.575,2.575,0,0,1,2.573,2.573Z" transform="translate(-18.761 -18.761)" fill="#f2f2f2"/>
      <path id="Trazado_105748" data-name="Trazado 105748" d="M207.436,141.941V129.286A1.286,1.286,0,0,0,206.15,128H193.286A1.286,1.286,0,0,0,192,129.286v25.726a1.286,1.286,0,0,0,1.286,1.286h11.577a1.29,1.29,0,0,0,1.03-.515l3.859-5.145a1.292,1.292,0,0,0,.191-1.178Z" transform="translate(-112.564 -112.564)" fill="#303c42"/>
      <path id="Trazado_105749" data-name="Trazado 105749" d="M231.487,261.145h-9L219.917,256h9.855Z" transform="translate(-137.115 -225.128)" fill="#e6e6e6"/>
      <path id="Trazado_105750" data-name="Trazado 105750" d="M213.333,294.065v-3.558l1.068,2.135Z" transform="translate(-131.325 -255.474)" fill="#f2f2f2"/>
      <path id="Trazado_105751" data-name="Trazado 105751" d="M213.333,294.065v-3.558l1.068,2.135Z" transform="translate(-131.325 -255.474)" fill="#fff" opacity="0.7"/>
      <g id="Grupo_54887" data-name="Grupo 54887" transform="translate(82.008 18.008)">
        <rect id="Rectángulo_5233" data-name="Rectángulo 5233" width="10.291" height="10.291" fill="#e6e6e6"/>
        <path id="Trazado_105752" data-name="Trazado 105752" d="M232.365,322.573h-8.36L225.934,320h8.36Z" transform="translate(-222.718 -299.419)" fill="#e6e6e6"/>
      </g>
      <path id="Trazado_105753" data-name="Trazado 105753" d="M232.365,322.573h-8.36L225.934,320h8.36Z" transform="translate(-140.71 -281.41)" opacity="0.2"/>
      <circle id="Elipse_4071" data-name="Elipse 4071" cx="2.573" cy="2.573" r="2.573" transform="translate(84.581 5.145)" fill="#303c42"/>
      <path id="Trazado_105754" data-name="Trazado 105754" d="M211.169,243.6l2.507,7.519a1.292,1.292,0,0,1-.191,1.178l-3.859,5.145a1.29,1.29,0,0,1-1.03.515H197.019a1.26,1.26,0,0,1-.774-.285L211.966,273.4h9.493a2.575,2.575,0,0,0,2.573-2.573V256.467Z" transform="translate(-116.297 -214.227)" fill="url(#linear-gradient-4)"/>
      <circle id="Elipse_4072" data-name="Elipse 4072" cx="2.573" cy="2.573" r="2.573" transform="translate(84.581 51.453)" fill="#303c42"/>
      <path id="Trazado_105755" data-name="Trazado 105755" d="M105.162,0H69.145A5.151,5.151,0,0,0,64,5.145V56.6a5.151,5.151,0,0,0,5.145,5.145h36.017a5.151,5.151,0,0,0,5.145-5.145V5.145A5.151,5.151,0,0,0,105.162,0Z" stroke="#000" stroke-width="1" fill="url(#linear-gradient-5)"/>
    </g>
    <g id="Grupo_54881" data-name="Grupo 54881" transform="translate(-10746.975 -10506.926)">
      <g id="Grupo_54880" data-name="Grupo 54880" transform="translate(-122.627 3382.74)">
        <g id="battery" transform="translate(688.133 864.186)">
          <path id="Trazado_105683" data-name="Trazado 105683" d="M159.945,152.281h-42.37A5.575,5.575,0,0,1,112,146.706V77.575A5.575,5.575,0,0,1,117.575,72h42.37a5.575,5.575,0,0,1,5.575,5.575v69.131A5.575,5.575,0,0,1,159.945,152.281Z" transform="translate(-6.513 -58.62)" fill="#afafaf"/>
          <path id="Trazado_105684" data-name="Trazado 105684" d="M343.008,77.575v69.131a5.575,5.575,0,0,1-5.575,5.575H330a5.575,5.575,0,0,0,5.575-5.575V77.575A5.575,5.575,0,0,0,330,72h7.433A5.575,5.575,0,0,1,343.008,77.575Z" transform="translate(-184.001 -58.62)" fill="#8a8a8a"/>
          <path id="Trazado_105685" data-name="Trazado 105685" d="M0,0H32.707V38.653H0Z" transform="translate(151.573 53.52) rotate(90)" fill="#4a4a4a"/>
          <path id="Trazado_105744" data-name="Trazado 105744" d="M0,0H32.707V38.653H0Z" transform="translate(151.573 20.813) rotate(90)" fill="#f39e1d"/>
          <path id="Trazado_105686" data-name="Trazado 105686" d="M320,112h7.433v32.707H320Z" transform="translate(-175.86 -58.48)" fill="#3d3d3d"/>
          <path id="Trazado_105745" data-name="Trazado 105745" d="M320,112h7.433v32.707H320Z" transform="translate(-175.86 -91.187)" fill="#ea5c23"/>
          <path id="Trazado_105687" data-name="Trazado 105687" d="M205.734,19.893H176V11.717A3.717,3.717,0,0,1,179.717,8h22.3a3.717,3.717,0,0,1,3.717,3.717Z" transform="translate(-58.62 -6.513)" fill="#afafaf"/>
          <path id="Trazado_105688" data-name="Trazado 105688" d="M287.15,11.717v8.177h-7.433V11.717A3.716,3.716,0,0,0,276,8h7.433A3.716,3.716,0,0,1,287.15,11.717Z" transform="translate(-140.036 -6.513)" fill="#8a8a8a"/>
          <path id="Trazado_105690" data-name="Trazado 105690" d="M153.432,11.893H148.6V5.2A5.209,5.209,0,0,0,143.4,0H121.1a5.209,5.209,0,0,0-5.2,5.2v6.69h-4.832A7.07,7.07,0,0,0,104,18.955V88.086a7.07,7.07,0,0,0,7.062,7.062h42.37a7.07,7.07,0,0,0,7.062-7.062V18.955A7.07,7.07,0,0,0,153.432,11.893ZM118.867,5.2a2.233,2.233,0,0,1,2.23-2.23h22.3a2.233,2.233,0,0,1,2.23,2.23v6.69h-26.76ZM157.52,88.086a4.093,4.093,0,0,1-4.088,4.088h-42.37a4.093,4.093,0,0,1-4.088-4.088V18.955a4.093,4.093,0,0,1,4.088-4.088h42.37a4.093,4.093,0,0,1,4.088,4.088Z" transform="translate(0)"/>
          <path id="Trazado_105691" data-name="Trazado 105691" d="M184.14,104H145.487A1.487,1.487,0,0,0,144,105.487V170.9a1.487,1.487,0,0,0,1.487,1.487H184.14a1.487,1.487,0,0,0,1.487-1.487V105.487A1.487,1.487,0,0,0,184.14,104Zm-1.487,65.414h-35.68V106.973h35.68Z" transform="translate(-32.567 -84.673)"/>
        </g>
        <text id="_" data-name="+" transform="translate(815 890.759)" font-size="20" font-family="Roboto-Black, Roboto" font-weight="800"><tspan x="-5.342" y="21">+</tspan></text>
        <text id="_-" data-name="-" transform="translate(815 920)" font-size="20" font-family="Roboto-Black, Roboto" font-weight="800"><tspan x="-4.497" y="21">-</tspan></text>
      </g>
    </g>
    <g id="Rectángulo_5253" data-name="Rectángulo 5253" transform="translate(-10091 -6378)" fill="#ffd500" stroke="#2a2a2a" stroke-width="3">
      <rect width="61" height="25" rx="12.5" stroke="none"/>
      <rect x="1.5" y="1.5" width="58" height="22" rx="11" fill="none"/>
    </g>
    <text id="_9_A" data-name="9 A" transform="translate(-9971 -6324.782)" fill="#12263f" font-size="13" font-family="Roboto-Black, Roboto" font-weight="800"><tspan x="-9.81" y="14">9 A</tspan></text>
    <text id="_16.5_A" data-name="16.5 A" transform="translate(-10081.37 -6372.5)" fill="#12263f" font-size="13" font-family="Roboto-Black, Roboto" font-weight="800"><tspan x="-19.303" y="14">16.5 A</tspan></text>
    <text id="_9_V" data-name="9 V" transform="translate(-9704 -6279.032)" fill="#12263f" font-size="13" font-family="Roboto-Black, Roboto" font-weight="800"><tspan x="-9.677" y="14">9 V</tspan></text>
    <text id="_4.5_A" data-name="4.5 A" transform="translate(-9889.5 -6324.782)" fill="#12263f" font-size="13" font-family="Roboto-Black, Roboto" font-weight="800"><tspan x="-15.539" y="14">4.5 A</tspan></text>
    <text id="_3_A" data-name="3 A" transform="translate(-9810 -6324.782)" fill="#12263f" font-size="13" font-family="Roboto-Black, Roboto" font-weight="800"><tspan x="-9.81" y="14">3 A</tspan></text>
  </g>
</svg>
