<?xml version="1.0" encoding="utf-8"?>
<!-- Generator: Adobe Illustrator 25.3.1, SVG Export Plug-In . SVG Version: 6.00 Build 0)  -->
<svg version="1.1" id="Capa_1" xmlns="http://www.w3.org/2000/svg" xmlns:xlink="http://www.w3.org/1999/xlink" x="0px" y="0px"
	 viewBox="0 0 664.5 71.2" style="enable-background:new 0 0 664.5 71.2;" xml:space="preserve">
<style type="text/css">
	.st0{fill:#12263F;}
	.st1{fill:#FFFFFF;}
	.st2{fill:none;stroke:#AD84FF;stroke-width:3;}
	.st3{font-family:'Roboto-Regular';}
	.st4{font-size:18px;}
</style>
<g id="Grupo_55652" transform="translate(-468.285 -5103.781)">
	<path id="Trazado_107279" class="st0" d="M773.3,5112.7l1.6-8.9h3.4l-3,14.2h-3.6l-1.9-8.1l-1.9,8.1h-3.5l-3-14.2h3.4l1.6,8.9
		l2-8.9h2.9L773.3,5112.7z M793.9,5111h-9v-2.5h9V5111z M793.9,5115.2h-9v-2.5h9V5115.2z M806.9,5114.1l2.8-10.4h3.8l-4.8,14.2H805
		l-4.7-14.2h3.8L806.9,5114.1z M823.7,5110.4l1.5-2.9h3.4l-2.8,5.1l2.9,5.4h-3.4l-1.7-3.1l-1.6,3.1h-3.5l2.9-5.4l-2.8-5.1h3.5
		L823.7,5110.4z M838.5,5118h-3.4v-14.2h3.4V5118z M474.7,5160.7h-4.9v4h5.7v1.2h-7.2v-11.4h7.1v1.2h-5.6v3.7h4.9V5160.7z
		 M478.5,5157.5l0,1.1c0.6-0.8,1.5-1.2,2.5-1.2c1.8,0,2.7,1,2.7,3v5.6h-1.4v-5.6c0-0.5-0.1-1-0.4-1.4c-0.3-0.3-0.8-0.5-1.3-0.4
		c-0.4,0-0.9,0.1-1.2,0.4c-0.4,0.3-0.6,0.6-0.8,1v6h-1.4v-8.5L478.5,5157.5z M489.6,5161.7c-0.1-1.1,0.3-2.2,0.9-3.1
		c1.1-1.4,3.1-1.6,4.4-0.5c0.1,0.1,0.2,0.2,0.4,0.3v-4.4h1.4v12h-1.3l-0.1-0.9c-0.6,0.7-1.5,1.1-2.4,1.1c-0.9,0-1.8-0.4-2.4-1.2
		c-0.7-0.9-1-2-0.9-3.1V5161.7z M491,5161.9c0,0.8,0.2,1.6,0.6,2.2c0.4,0.5,1,0.8,1.6,0.8c0.9,0,1.6-0.4,2-1.2v-3.9
		c-0.4-0.8-1.1-1.2-2-1.2c-0.7,0-1.3,0.3-1.7,0.8C491.2,5160.2,491,5161,491,5161.9L491,5161.9z M498.6,5161.7
		c0-0.8,0.2-1.5,0.5-2.2c0.3-0.6,0.8-1.2,1.4-1.5c0.6-0.4,1.3-0.6,2-0.5c1.1,0,2.1,0.4,2.8,1.2c0.7,0.9,1.1,2,1.1,3.2v0.1
		c0,0.8-0.1,1.5-0.5,2.2c-0.3,0.6-0.8,1.2-1.4,1.5c-0.6,0.4-1.3,0.6-2,0.5c-1.1,0-2.1-0.4-2.8-1.2c-0.7-0.9-1.1-2-1.1-3.2V5161.7z
		 M500,5161.9c0,0.8,0.2,1.6,0.7,2.3c0.7,1,2.1,1.1,3.1,0.4c0.1-0.1,0.3-0.3,0.4-0.4c0.5-0.7,0.7-1.6,0.6-2.4c0-0.8-0.2-1.6-0.7-2.3
		c-0.4-0.6-1.1-0.9-1.8-0.9c-0.7,0-1.3,0.3-1.7,0.9C500.2,5160.1,500,5161,500,5161.9L500,5161.9z M509.5,5157.5l0,1.1
		c0.6-0.8,1.5-1.2,2.5-1.2c1.8,0,2.7,1,2.7,3v5.6h-1.4v-5.6c0-0.5-0.1-1-0.4-1.4c-0.3-0.3-0.8-0.5-1.3-0.4c-0.4,0-0.9,0.1-1.2,0.4
		c-0.4,0.3-0.6,0.6-0.8,1v6h-1.4v-8.5L509.5,5157.5z M516.6,5161.7c-0.1-1.1,0.3-2.2,0.9-3.1c1.1-1.4,3.1-1.6,4.4-0.5
		c0.1,0.1,0.2,0.2,0.4,0.3v-4.4h1.4v12h-1.3l-0.1-0.9c-0.6,0.7-1.5,1.1-2.4,1.1c-0.9,0-1.8-0.4-2.4-1.2c-0.7-0.9-1-2-0.9-3.1V5161.7
		z M518,5161.9c0,0.8,0.2,1.6,0.6,2.2c0.4,0.5,1,0.8,1.6,0.8c0.9,0,1.7-0.4,2-1.2v-3.9c-0.4-0.8-1.1-1.2-2-1.2
		c-0.7,0-1.3,0.3-1.7,0.8C518.2,5160.2,518,5161,518,5161.9L518,5161.9z M529.4,5166.2c-1.1,0-2.1-0.4-2.8-1.1
		c-0.7-0.8-1.1-1.9-1.1-3v-0.3c0-0.8,0.2-1.5,0.5-2.2c0.3-0.6,0.8-1.2,1.3-1.5c0.6-0.4,1.2-0.6,1.9-0.6c1-0.1,1.9,0.3,2.6,1.1
		c0.7,0.9,1,2,0.9,3.1v0.6H527c0,0.7,0.2,1.5,0.7,2c0.5,0.5,1.1,0.8,1.8,0.8c0.5,0,0.9-0.1,1.3-0.3c0.4-0.2,0.7-0.5,0.9-0.8l0.9,0.7
		C531.9,5165.6,530.7,5166.2,529.4,5166.2L529.4,5166.2z M529.3,5158.6c-0.6,0-1.1,0.2-1.5,0.6c-0.4,0.5-0.7,1.1-0.7,1.8h4.2v-0.1
		c0-0.6-0.2-1.2-0.6-1.7C530.3,5158.8,529.8,5158.6,529.3,5158.6L529.3,5158.6z M583.7,5161.5v4.5h-1.5v-11.4h4.2
		c1.1-0.1,2.1,0.3,2.9,1c0.7,0.6,1.1,1.6,1.1,2.5c0.1,1-0.3,1.9-1,2.6c-0.8,0.6-1.9,1-3,0.9L583.7,5161.5z M583.7,5160.3h2.7
		c0.7,0,1.3-0.2,1.8-0.6c0.4-0.4,0.7-1,0.6-1.6c0-0.6-0.2-1.2-0.6-1.6c-0.5-0.4-1.1-0.7-1.8-0.6h-2.8L583.7,5160.3z M591.6,5161.7
		c0-0.8,0.2-1.5,0.5-2.2c0.3-0.6,0.8-1.2,1.4-1.5c0.6-0.4,1.3-0.6,2-0.5c1.1,0,2.1,0.4,2.8,1.2c0.7,0.9,1.1,2,1.1,3.2v0.1
		c0,0.8-0.1,1.5-0.5,2.2c-0.3,0.6-0.8,1.2-1.4,1.5c-0.6,0.4-1.3,0.6-2,0.5c-1.1,0-2.1-0.4-2.8-1.2c-0.7-0.9-1.1-2-1.1-3.2
		L591.6,5161.7z M593,5161.9c0,0.8,0.2,1.6,0.7,2.3c0.7,1,2.1,1.1,3.1,0.4c0.1-0.1,0.3-0.3,0.4-0.4c0.5-0.7,0.7-1.6,0.6-2.4
		c0-0.8-0.2-1.6-0.7-2.3c-0.4-0.6-1.1-0.9-1.8-0.9c-0.7,0-1.3,0.3-1.7,0.9C593.2,5160.1,593,5161,593,5161.9L593,5161.9z
		 M603,5155.5v2h1.6v1.1H603v5.2c0,0.3,0.1,0.5,0.2,0.8c0.2,0.2,0.5,0.3,0.7,0.3c0.2,0,0.5,0,0.7-0.1v1.2c-0.4,0.1-0.7,0.2-1.1,0.2
		c-0.6,0-1.1-0.2-1.5-0.6c-0.4-0.5-0.5-1.1-0.5-1.7v-5.2H600v-1.1h1.5v-2H603z M609.8,5166.2c-1.1,0-2.1-0.4-2.8-1.1
		c-0.7-0.8-1.1-1.9-1.1-3v-0.3c0-0.8,0.2-1.5,0.5-2.2c0.3-0.6,0.8-1.2,1.3-1.5c0.6-0.4,1.2-0.6,1.9-0.6c1-0.1,1.9,0.3,2.6,1.1
		c0.7,0.9,1,2,0.9,3.1v0.6h-5.7c0,0.7,0.2,1.5,0.7,2c0.5,0.5,1.1,0.8,1.8,0.8c0.5,0,0.9-0.1,1.3-0.3c0.4-0.2,0.7-0.5,0.9-0.8
		l0.9,0.7C612.3,5165.6,611.1,5166.2,609.8,5166.2z M609.6,5158.6c-0.6,0-1.1,0.2-1.5,0.6c-0.4,0.5-0.7,1.1-0.7,1.8h4.2v-0.1
		c0-0.6-0.2-1.2-0.6-1.7C610.7,5158.8,610.2,5158.6,609.6,5158.6L609.6,5158.6z M616.1,5157.5l0,1.1c0.6-0.8,1.5-1.2,2.5-1.2
		c1.8,0,2.7,1,2.7,3v5.6H620v-5.6c0-0.5-0.1-1-0.4-1.4c-0.3-0.3-0.8-0.5-1.3-0.4c-0.4,0-0.9,0.1-1.2,0.4c-0.4,0.3-0.6,0.6-0.8,1v6
		h-1.4v-8.5H616.1z M627,5165c0.5,0,1-0.2,1.4-0.5c0.4-0.3,0.6-0.7,0.6-1.2h1.4c0,0.5-0.2,1-0.5,1.4c-0.3,0.4-0.7,0.8-1.2,1
		c-0.5,0.3-1.1,0.4-1.6,0.4c-1,0-2.1-0.4-2.7-1.2c-0.7-0.9-1.1-2-1-3.2v-0.2c0-0.8,0.1-1.5,0.5-2.2c0.3-0.6,0.7-1.1,1.3-1.5
		c0.6-0.4,1.3-0.5,2-0.5c0.9,0,1.7,0.3,2.4,0.9c0.6,0.6,1,1.4,1,2.2H629c0-0.5-0.2-1-0.6-1.3c-0.4-0.4-0.9-0.5-1.4-0.5
		c-0.7,0-1.3,0.3-1.7,0.8c-0.4,0.7-0.7,1.5-0.6,2.3v0.3c-0.1,0.8,0.2,1.6,0.6,2.2C625.7,5164.7,626.3,5165,627,5165L627,5165z
		 M633.5,5166h-1.4v-8.5h1.4L633.5,5166z M632,5155.3c0-0.2,0.1-0.4,0.2-0.6c0.2-0.2,0.4-0.3,0.6-0.2c0.2,0,0.5,0.1,0.6,0.2
		c0.1,0.2,0.2,0.4,0.2,0.6c0,0.2-0.1,0.4-0.2,0.6c-0.2,0.2-0.4,0.3-0.6,0.2c-0.2,0-0.5-0.1-0.6-0.2
		C632.1,5155.7,632,5155.5,632,5155.3z M641.1,5166c-0.1-0.3-0.2-0.6-0.2-0.9c-0.6,0.7-1.5,1.1-2.4,1c-0.7,0-1.5-0.2-2.1-0.7
		c-0.5-0.4-0.8-1.1-0.8-1.8c0-0.8,0.3-1.6,1-2.1c0.8-0.5,1.8-0.8,2.8-0.7h1.4v-0.7c0-0.4-0.1-0.9-0.5-1.2c-0.4-0.3-0.8-0.5-1.3-0.4
		c-0.5,0-0.9,0.1-1.3,0.4c-0.3,0.2-0.5,0.6-0.5,0.9h-1.5c0-0.4,0.2-0.9,0.4-1.2c0.3-0.4,0.7-0.7,1.2-0.9c0.5-0.2,1.1-0.4,1.7-0.3
		c0.8,0,1.6,0.2,2.3,0.7c0.6,0.5,0.9,1.2,0.9,2v3.9c0,0.6,0.1,1.3,0.3,1.9v0.1H641.1z M638.7,5164.9c0.5,0,0.9-0.1,1.3-0.4
		c0.4-0.2,0.7-0.5,0.9-0.9v-1.7h-1.1c-1.8,0-2.7,0.5-2.7,1.6c0,0.4,0.1,0.8,0.5,1.1C637.8,5164.8,638.3,5164.9,638.7,5164.9
		L638.7,5164.9z M652,5166.2c-1.1,0-2.1-0.4-2.8-1.1c-0.7-0.8-1.1-1.9-1.1-3v-0.3c0-0.8,0.2-1.5,0.5-2.2c0.3-0.6,0.8-1.2,1.3-1.5
		c0.6-0.4,1.2-0.6,1.9-0.6c1-0.1,1.9,0.3,2.6,1.1c0.7,0.9,1,2,0.9,3.1v0.6h-5.7c0,0.7,0.2,1.5,0.7,2c0.5,0.5,1.1,0.8,1.8,0.8
		c0.5,0,0.9-0.1,1.3-0.3c0.4-0.2,0.7-0.5,0.9-0.8l0.9,0.7C654.5,5165.6,653.3,5166.2,652,5166.2L652,5166.2z M651.8,5158.6
		c-0.6,0-1.1,0.2-1.5,0.6c-0.4,0.5-0.7,1.1-0.7,1.8h4.2v-0.1c0-0.6-0.2-1.2-0.6-1.7C652.9,5158.8,652.4,5158.6,651.8,5158.6
		L651.8,5158.6z M658.4,5157.5l0,1.1c0.6-0.8,1.5-1.2,2.5-1.2c1.8,0,2.7,1,2.7,3v5.6h-1.4v-5.6c0-0.5-0.1-1-0.4-1.4
		c-0.3-0.3-0.8-0.5-1.3-0.4c-0.4,0-0.9,0.1-1.2,0.4c-0.4,0.3-0.6,0.6-0.8,1v6H657v-8.5L658.4,5157.5z M672.6,5164l2.1-6.5h1.5
		l-3,8.5H672l-3.1-8.5h1.5L672.6,5164z M682.6,5166c-0.1-0.3-0.2-0.6-0.2-0.9c-0.6,0.7-1.5,1.1-2.4,1c-0.7,0-1.5-0.2-2.1-0.7
		c-0.5-0.4-0.8-1.1-0.8-1.8c0-0.8,0.3-1.6,1-2.1c0.8-0.5,1.8-0.8,2.8-0.7h1.4v-0.7c0-0.4-0.1-0.9-0.5-1.2c-0.4-0.3-0.8-0.5-1.3-0.4
		c-0.5,0-0.9,0.1-1.3,0.4c-0.3,0.2-0.5,0.6-0.5,0.9h-1.5c0-0.4,0.2-0.9,0.4-1.2c0.3-0.4,0.7-0.7,1.2-0.9c0.5-0.2,1.1-0.4,1.7-0.3
		c0.8,0,1.6,0.2,2.3,0.7c0.6,0.5,0.9,1.2,0.9,2v3.9c0,0.6,0.1,1.3,0.3,1.9v0.1H682.6z M680.2,5164.9c0.5,0,0.9-0.1,1.3-0.4
		c0.4-0.2,0.7-0.5,0.9-0.9v-1.7h-1.1c-1.8,0-2.7,0.5-2.7,1.6c0,0.4,0.1,0.8,0.5,1.1C679.4,5164.8,679.8,5164.9,680.2,5164.9
		L680.2,5164.9z M688.1,5155.5v2h1.6v1.1h-1.6v5.2c0,0.3,0.1,0.5,0.2,0.8c0.2,0.2,0.5,0.3,0.7,0.3c0.2,0,0.5,0,0.7-0.1v1.2
		c-0.4,0.1-0.7,0.2-1.1,0.2c-0.6,0-1.1-0.2-1.5-0.6c-0.4-0.5-0.5-1.1-0.5-1.7v-5.2h-1.5v-1.1h1.5v-2H688.1z M692.9,5166h-1.4v-8.5
		h1.4V5166z M691.4,5155.3c0-0.2,0.1-0.4,0.2-0.6c0.2-0.2,0.4-0.3,0.6-0.2c0.2,0,0.5,0.1,0.6,0.2c0.1,0.2,0.2,0.4,0.2,0.6
		c0,0.2-0.1,0.4-0.2,0.6c-0.2,0.2-0.4,0.3-0.6,0.2c-0.2,0-0.5-0.1-0.6-0.2C691.4,5155.7,691.3,5155.5,691.4,5155.3L691.4,5155.3z
		 M694.8,5161.7c0-0.8,0.2-1.5,0.5-2.2c0.3-0.6,0.8-1.2,1.4-1.5c0.6-0.4,1.3-0.6,2-0.5c1.1,0,2.1,0.4,2.8,1.2c0.7,0.9,1.1,2,1.1,3.2
		v0.1c0,0.8-0.1,1.5-0.5,2.2c-0.3,0.6-0.8,1.2-1.4,1.5c-0.6,0.4-1.3,0.6-2,0.5c-1.1,0-2.1-0.4-2.8-1.2c-0.7-0.9-1.1-2-1.1-3.2
		L694.8,5161.7z M696.3,5161.9c0,0.8,0.2,1.6,0.7,2.3c0.7,1,2.1,1.1,3.1,0.4c0.1-0.1,0.3-0.3,0.4-0.4c0.5-0.7,0.7-1.6,0.6-2.4
		c0-0.8-0.2-1.6-0.7-2.3c-0.4-0.6-1.1-0.9-1.8-0.9c-0.7,0-1.3,0.3-1.7,0.9C696.5,5160.2,696.2,5161,696.3,5161.9L696.3,5161.9z
		 M709.3,5163.8c0-0.4-0.2-0.7-0.4-0.9c-0.5-0.3-1-0.5-1.5-0.6c-0.6-0.1-1.2-0.3-1.7-0.6c-0.4-0.2-0.7-0.4-1-0.8
		c-0.2-0.3-0.3-0.7-0.3-1.1c0-0.7,0.3-1.3,0.9-1.8c0.6-0.5,1.4-0.8,2.2-0.7c0.8,0,1.7,0.2,2.3,0.7c0.6,0.5,0.9,1.2,0.9,1.9h-1.5
		c0-0.4-0.2-0.8-0.5-1c-0.4-0.3-0.8-0.4-1.3-0.4c-0.4,0-0.9,0.1-1.2,0.3c-0.3,0.2-0.5,0.5-0.4,0.9c0,0.3,0.1,0.6,0.4,0.8
		c0.5,0.2,1,0.4,1.5,0.5c0.6,0.1,1.2,0.3,1.8,0.6c0.4,0.2,0.7,0.5,1,0.8c0.2,0.3,0.3,0.7,0.3,1.2c0,0.7-0.3,1.4-0.9,1.8
		c-0.7,0.5-1.5,0.7-2.4,0.7c-0.6,0-1.2-0.1-1.8-0.4c-0.5-0.2-0.9-0.6-1.2-1c-0.3-0.4-0.5-0.9-0.5-1.4h1.4c0,0.5,0.2,0.9,0.6,1.2
		c0.4,0.3,0.9,0.5,1.4,0.4c0.5,0,0.9-0.1,1.3-0.3C709.1,5164.5,709.3,5164.1,709.3,5163.8L709.3,5163.8z M722,5168.1h-1.2v-13.5h1.2
		L722,5168.1z M783.7,5155.9H780v10.1h-1.5v-10.1h-3.6v-1.2h8.8L783.7,5155.9z M788.7,5166.2c-1.1,0-2.1-0.4-2.8-1.1
		c-0.7-0.8-1.1-1.9-1.1-3v-0.3c0-0.8,0.2-1.5,0.5-2.2c0.3-0.6,0.8-1.2,1.3-1.5c0.6-0.4,1.2-0.6,1.9-0.6c1-0.1,1.9,0.3,2.6,1.1
		c0.7,0.9,1,2,0.9,3.1v0.6h-5.7c0,0.7,0.2,1.5,0.7,2c0.5,0.5,1.1,0.8,1.8,0.8c0.5,0,0.9-0.1,1.3-0.3c0.4-0.2,0.7-0.5,0.9-0.8
		l0.9,0.7C791.2,5165.6,789.9,5166.2,788.7,5166.2L788.7,5166.2z M788.5,5158.6c-0.6,0-1.1,0.2-1.5,0.6c-0.4,0.5-0.7,1.1-0.7,1.8
		h4.2v-0.1c0-0.6-0.2-1.2-0.6-1.7C789.6,5158.8,789,5158.6,788.5,5158.6L788.5,5158.6z M795,5157.5l0,1.1c0.6-0.8,1.5-1.2,2.5-1.2
		c1.8,0,2.7,1,2.7,3v5.6h-1.4v-5.6c0-0.5-0.1-1-0.4-1.4c-0.3-0.3-0.8-0.5-1.3-0.4c-0.4,0-0.9,0.1-1.2,0.4c-0.4,0.3-0.6,0.6-0.8,1v6
		h-1.4v-8.5H795z M807.4,5163.8c0-0.4-0.2-0.7-0.4-0.9c-0.5-0.3-1-0.5-1.5-0.6c-0.6-0.1-1.2-0.3-1.7-0.6c-0.4-0.2-0.7-0.4-1-0.8
		c-0.2-0.3-0.3-0.7-0.3-1.1c0-0.7,0.3-1.3,0.9-1.8c0.6-0.5,1.4-0.8,2.2-0.7c0.8,0,1.7,0.2,2.3,0.7c0.6,0.5,0.9,1.2,0.9,1.9h-1.5
		c0-0.4-0.2-0.8-0.5-1c-0.4-0.3-0.8-0.4-1.3-0.4c-0.4,0-0.9,0.1-1.2,0.3c-0.3,0.2-0.5,0.5-0.4,0.9c0,0.3,0.1,0.6,0.4,0.8
		c0.5,0.2,1,0.4,1.5,0.5c0.6,0.1,1.2,0.3,1.8,0.6c0.4,0.2,0.7,0.5,1,0.8c0.2,0.3,0.3,0.7,0.3,1.2c0,0.7-0.3,1.4-0.9,1.8
		c-0.7,0.5-1.5,0.7-2.4,0.7c-0.6,0-1.2-0.1-1.8-0.4c-0.5-0.2-0.9-0.6-1.2-1c-0.3-0.4-0.4-0.9-0.4-1.4h1.4c0,0.5,0.2,0.9,0.6,1.2
		c0.4,0.3,0.9,0.5,1.4,0.4c0.5,0,0.9-0.1,1.3-0.3C807.2,5164.5,807.4,5164.1,807.4,5163.8L807.4,5163.8z M812.3,5166h-1.4v-8.5h1.4
		V5166z M810.7,5155.3c0-0.2,0.1-0.4,0.2-0.6c0.2-0.2,0.4-0.3,0.6-0.2c0.2,0,0.5,0.1,0.6,0.2c0.1,0.2,0.2,0.4,0.2,0.6
		c0,0.2-0.1,0.4-0.2,0.6c-0.2,0.2-0.4,0.3-0.6,0.2c-0.2,0-0.5-0.1-0.6-0.2C810.8,5155.7,810.7,5155.5,810.7,5155.3L810.7,5155.3z
		 M814.2,5161.7c0-0.8,0.2-1.5,0.5-2.2c0.3-0.6,0.8-1.2,1.4-1.5c0.6-0.4,1.3-0.6,2-0.5c1.1,0,2.1,0.4,2.8,1.2c0.7,0.9,1.1,2,1.1,3.2
		v0.1c0,0.8-0.1,1.5-0.5,2.2c-0.3,0.6-0.8,1.2-1.4,1.5c-0.6,0.4-1.3,0.6-2,0.5c-1.1,0-2.1-0.4-2.8-1.2c-0.7-0.9-1.1-2-1.1-3.2
		L814.2,5161.7z M815.7,5161.9c0,0.8,0.2,1.6,0.7,2.3c0.7,1,2.1,1.1,3.1,0.4c0.1-0.1,0.3-0.3,0.4-0.4c0.5-0.7,0.7-1.6,0.6-2.4
		c0-0.8-0.2-1.6-0.7-2.3c-0.4-0.6-1.1-0.9-1.8-0.9c-0.7,0-1.3,0.3-1.7,0.9C815.8,5160.1,815.6,5161,815.7,5161.9L815.7,5161.9z
		 M818.7,5154h1.8l-2.1,2.3h-1.2L818.7,5154z M825.1,5157.5l0,1.1c0.6-0.8,1.5-1.2,2.5-1.2c1.8,0,2.7,1,2.7,3v5.6h-1.4v-5.6
		c0-0.5-0.1-1-0.4-1.4c-0.3-0.3-0.8-0.5-1.3-0.4c-0.4,0-0.9,0.1-1.2,0.4c-0.4,0.3-0.6,0.6-0.8,1v6h-1.4v-8.5H825.1z M840,5166.2
		c-1.1,0-2.1-0.4-2.8-1.1c-0.7-0.8-1.1-1.9-1.1-3v-0.3c0-0.8,0.2-1.5,0.5-2.2c0.3-0.6,0.8-1.2,1.3-1.5c0.6-0.4,1.2-0.6,1.9-0.6
		c1-0.1,1.9,0.3,2.6,1.1c0.7,0.9,1,2,0.9,3.1v0.6h-5.7c0,0.7,0.2,1.5,0.7,2c0.5,0.5,1.1,0.8,1.8,0.8c0.5,0,0.9-0.1,1.3-0.3
		c0.4-0.2,0.7-0.5,0.9-0.8l0.9,0.7C842.5,5165.6,841.3,5166.2,840,5166.2L840,5166.2z M839.8,5158.6c-0.6,0-1.1,0.2-1.5,0.6
		c-0.4,0.5-0.7,1.1-0.7,1.8h4.2v-0.1c0-0.6-0.2-1.2-0.6-1.7C840.9,5158.8,840.4,5158.6,839.8,5158.6L839.8,5158.6z M846.3,5157.5
		l0,1.1c0.6-0.8,1.5-1.2,2.5-1.2c1.8,0,2.7,1,2.7,3v5.6h-1.4v-5.6c0-0.5-0.1-1-0.4-1.4c-0.3-0.3-0.8-0.5-1.3-0.4
		c-0.4,0-0.9,0.1-1.2,0.4c-0.4,0.3-0.6,0.6-0.8,1v6H845v-8.5H846.3z M860.6,5164l2.1-6.5h1.5l-3,8.5H860l-3.1-8.5h1.5L860.6,5164z
		 M865,5161.7c0-0.8,0.2-1.5,0.5-2.2c0.3-0.6,0.8-1.2,1.4-1.5c0.6-0.4,1.3-0.6,2-0.5c1.1,0,2.1,0.4,2.8,1.2c0.7,0.9,1.1,2,1.1,3.2
		v0.1c0,0.8-0.1,1.5-0.5,2.2c-0.3,0.6-0.8,1.2-1.4,1.5c-0.6,0.4-1.3,0.6-2,0.5c-1.1,0-2.1-0.4-2.8-1.2
		C865.3,5164.1,865,5163,865,5161.7L865,5161.7z M866.5,5161.9c0,0.8,0.2,1.6,0.7,2.3c0.7,1,2.1,1.1,3.1,0.4
		c0.1-0.1,0.3-0.3,0.4-0.4c0.5-0.7,0.7-1.6,0.6-2.4c0-0.8-0.2-1.6-0.7-2.3c-0.4-0.6-1.1-0.9-1.8-0.9c-0.7,0-1.3,0.3-1.7,0.9
		C866.7,5160.2,866.4,5161,866.5,5161.9L866.5,5161.9z M876.1,5166h-1.4v-12h1.4V5166z M880.4,5155.5v2h1.6v1.1h-1.6v5.2
		c0,0.3,0.1,0.5,0.2,0.8c0.2,0.2,0.5,0.3,0.7,0.3c0.2,0,0.5,0,0.7-0.1v1.2c-0.4,0.1-0.7,0.2-1.1,0.2c-0.6,0-1.1-0.2-1.5-0.6
		c-0.4-0.5-0.5-1.1-0.5-1.7v-5.2h-1.5v-1.1h1.5v-2H880.4z M885.2,5166h-1.4v-8.5h1.4V5166z M883.6,5155.3c0-0.2,0.1-0.4,0.2-0.6
		c0.2-0.2,0.4-0.3,0.6-0.2c0.2,0,0.5,0.1,0.6,0.2c0.1,0.2,0.2,0.4,0.2,0.6c0,0.2-0.1,0.4-0.2,0.6c-0.2,0.2-0.4,0.3-0.6,0.2
		c-0.2,0-0.5-0.1-0.6-0.2C883.7,5155.7,883.6,5155.5,883.6,5155.3z M887.1,5161.7c0-0.8,0.2-1.5,0.5-2.2c0.3-0.6,0.8-1.2,1.4-1.5
		c0.6-0.4,1.3-0.6,2-0.5c1.1,0,2.1,0.4,2.8,1.2c0.7,0.9,1.1,2,1.1,3.2v0.1c0,0.8-0.1,1.5-0.5,2.2c-0.3,0.6-0.8,1.2-1.4,1.5
		c-0.6,0.4-1.3,0.6-2,0.5c-1.1,0-2.1-0.4-2.8-1.2c-0.7-0.9-1.1-2-1.1-3.2L887.1,5161.7z M888.6,5161.9c0,0.8,0.2,1.6,0.7,2.3
		c0.7,1,2.1,1.1,3.1,0.4c0.1-0.1,0.3-0.3,0.4-0.4c0.5-0.7,0.7-1.6,0.6-2.4c0-0.8-0.2-1.6-0.7-2.3c-0.4-0.6-1.1-0.9-1.8-0.9
		c-0.7,0-1.3,0.3-1.7,0.9C888.8,5160.1,888.5,5161,888.6,5161.9L888.6,5161.9z M901.6,5163.8c0-0.4-0.2-0.7-0.4-0.9
		c-0.5-0.3-1-0.5-1.5-0.6c-0.6-0.1-1.2-0.3-1.7-0.6c-0.4-0.2-0.7-0.4-1-0.8c-0.2-0.3-0.3-0.7-0.3-1.1c0-0.7,0.3-1.3,0.9-1.8
		c0.6-0.5,1.4-0.8,2.2-0.7c0.8,0,1.7,0.2,2.3,0.7c0.6,0.5,0.9,1.2,0.9,1.9h-1.5c0-0.4-0.2-0.8-0.5-1c-0.4-0.3-0.8-0.4-1.3-0.4
		c-0.4,0-0.9,0.1-1.2,0.3c-0.3,0.2-0.5,0.5-0.4,0.9c0,0.3,0.1,0.6,0.4,0.8c0.5,0.2,1,0.4,1.5,0.5c0.6,0.1,1.2,0.3,1.8,0.6
		c0.4,0.2,0.7,0.5,1,0.8c0.2,0.3,0.3,0.7,0.3,1.2c0,0.7-0.3,1.4-0.9,1.8c-0.7,0.5-1.5,0.7-2.4,0.7c-0.6,0-1.2-0.1-1.8-0.4
		c-0.5-0.2-0.9-0.6-1.2-1c-0.3-0.4-0.4-0.9-0.4-1.4h1.4c0,0.5,0.2,0.9,0.6,1.2c0.4,0.3,0.9,0.5,1.4,0.4c0.5,0,0.9-0.1,1.3-0.3
		C901.4,5164.5,901.6,5164.1,901.6,5163.8L901.6,5163.8z M914.3,5168.1h-1.2v-13.5h1.2L914.3,5168.1z M966.1,5166h-1.5v-11.4h1.5
		V5166z M970,5157.5l0,1.1c0.6-0.8,1.5-1.2,2.5-1.2c1.8,0,2.7,1,2.7,3v5.6h-1.4v-5.6c0-0.5-0.1-1-0.4-1.4c-0.3-0.3-0.8-0.5-1.3-0.4
		c-0.4,0-0.9,0.1-1.2,0.4c-0.4,0.3-0.6,0.6-0.8,1v6h-1.4v-8.5H970z M979.4,5155.5v2h1.6v1.1h-1.6v5.2c0,0.3,0.1,0.5,0.2,0.8
		c0.2,0.2,0.5,0.3,0.7,0.3c0.2,0,0.5,0,0.7-0.1v1.2c-0.4,0.1-0.7,0.2-1.1,0.2c-0.6,0-1.1-0.2-1.5-0.6c-0.4-0.5-0.5-1.1-0.5-1.7v-5.2
		h-1.5v-1.1h1.5v-2H979.4z M986.2,5166.2c-1.1,0-2.1-0.4-2.8-1.1c-0.7-0.8-1.1-1.9-1.1-3v-0.3c0-0.8,0.2-1.5,0.5-2.2
		c0.3-0.6,0.8-1.2,1.3-1.5c0.6-0.4,1.2-0.6,1.9-0.6c1-0.1,1.9,0.3,2.6,1.1c0.7,0.9,1,2,0.9,3.1v0.6h-5.7c0,0.7,0.2,1.5,0.7,2
		c0.5,0.5,1.1,0.8,1.8,0.8c0.5,0,0.9-0.1,1.3-0.3c0.4-0.2,0.7-0.5,0.9-0.8l0.9,0.7C988.7,5165.6,987.4,5166.2,986.2,5166.2
		L986.2,5166.2z M986,5158.6c-0.6,0-1.1,0.2-1.5,0.6c-0.4,0.5-0.7,1.1-0.7,1.8h4.2v-0.1c0-0.6-0.2-1.2-0.6-1.7
		C987.1,5158.8,986.5,5158.6,986,5158.6L986,5158.6z M992.5,5157.5l0,1.1c0.6-0.8,1.5-1.2,2.5-1.2c1.8,0,2.7,1,2.7,3v5.6h-1.4v-5.6
		c0-0.5-0.1-1-0.4-1.4c-0.3-0.3-0.8-0.5-1.3-0.4c-0.4,0-0.9,0.1-1.2,0.4c-0.4,0.3-0.6,0.6-0.8,1v6h-1.4v-8.5H992.5z M1004.9,5163.8
		c0-0.4-0.2-0.7-0.4-0.9c-0.5-0.3-1-0.5-1.5-0.6c-0.6-0.1-1.2-0.3-1.7-0.6c-0.4-0.2-0.7-0.4-1-0.8c-0.2-0.3-0.3-0.7-0.3-1.1
		c0-0.7,0.3-1.3,0.9-1.8c0.6-0.5,1.4-0.8,2.2-0.7c0.8,0,1.7,0.2,2.3,0.7c0.6,0.5,0.9,1.2,0.9,1.9h-1.5c0-0.4-0.2-0.8-0.5-1
		c-0.4-0.3-0.8-0.4-1.3-0.4c-0.4,0-0.9,0.1-1.2,0.3c-0.3,0.2-0.5,0.5-0.4,0.9c0,0.3,0.1,0.6,0.4,0.8c0.5,0.2,1,0.4,1.5,0.5
		c0.6,0.1,1.2,0.3,1.7,0.6c0.4,0.2,0.7,0.5,1,0.8c0.2,0.3,0.3,0.7,0.3,1.2c0,0.7-0.3,1.4-0.9,1.8c-0.7,0.5-1.5,0.7-2.4,0.7
		c-0.6,0-1.2-0.1-1.8-0.4c-0.5-0.2-0.9-0.6-1.2-1c-0.3-0.4-0.4-0.9-0.4-1.4h1.4c0,0.5,0.2,0.9,0.6,1.2c0.4,0.3,0.9,0.5,1.4,0.4
		c0.5,0,0.9-0.1,1.3-0.3C1004.7,5164.5,1004.9,5164.1,1004.9,5163.8z M1009.8,5166h-1.4v-8.5h1.4V5166z M1008.2,5155.3
		c0-0.2,0.1-0.4,0.2-0.6c0.2-0.2,0.4-0.3,0.6-0.2c0.2,0,0.5,0.1,0.6,0.2c0.1,0.2,0.2,0.4,0.2,0.6c0,0.2-0.1,0.4-0.2,0.6
		c-0.2,0.2-0.4,0.3-0.6,0.2c-0.2,0-0.5-0.1-0.6-0.2C1008.3,5155.7,1008.2,5155.5,1008.2,5155.3L1008.2,5155.3z M1011.7,5161.7
		c-0.1-1.1,0.3-2.2,0.9-3.1c1.1-1.4,3.1-1.6,4.4-0.5c0.1,0.1,0.2,0.2,0.4,0.3v-4.4h1.4v12h-1.3l-0.1-0.9c-0.6,0.7-1.5,1.1-2.4,1.1
		c-0.9,0-1.8-0.4-2.4-1.2c-0.7-0.9-1-2-0.9-3.1L1011.7,5161.7z M1013.2,5161.9c0,0.8,0.2,1.6,0.6,2.2c0.4,0.5,1,0.8,1.6,0.8
		c0.9,0,1.7-0.5,2-1.2v-3.9c-0.4-0.8-1.1-1.2-2-1.2c-0.7,0-1.3,0.3-1.7,0.8C1013.3,5160.2,1013.1,5161,1013.2,5161.9L1013.2,5161.9z
		 M1026.3,5166c-0.1-0.3-0.2-0.6-0.2-0.9c-0.6,0.7-1.5,1.1-2.4,1c-0.7,0-1.5-0.2-2.1-0.7c-0.5-0.4-0.8-1.1-0.8-1.8
		c0-0.8,0.3-1.6,1-2.1c0.8-0.5,1.8-0.8,2.8-0.7h1.4v-0.7c0-0.4-0.1-0.9-0.5-1.2c-0.4-0.3-0.8-0.5-1.3-0.4c-0.5,0-0.9,0.1-1.3,0.4
		c-0.3,0.2-0.5,0.6-0.5,0.9h-1.5c0-0.4,0.2-0.9,0.4-1.2c0.3-0.4,0.7-0.7,1.2-0.9c0.5-0.2,1.1-0.4,1.7-0.3c0.8,0,1.6,0.2,2.3,0.7
		c0.6,0.5,0.9,1.2,0.9,2v3.9c0,0.6,0.1,1.3,0.3,1.9v0.1H1026.3z M1023.9,5164.9c0.5,0,0.9-0.1,1.3-0.4c0.4-0.2,0.7-0.5,0.9-0.9v-1.7
		h-1.1c-1.8,0-2.7,0.5-2.7,1.6c0,0.4,0.1,0.8,0.5,1.1C1023.1,5164.8,1023.5,5164.9,1023.9,5164.9L1023.9,5164.9z M1029.5,5161.7
		c-0.1-1.1,0.3-2.2,0.9-3.1c1.1-1.4,3.1-1.6,4.4-0.5c0.1,0.1,0.2,0.2,0.4,0.3v-4.4h1.4v12h-1.3l-0.1-0.9c-0.6,0.7-1.5,1.1-2.4,1.1
		c-0.9,0-1.8-0.4-2.4-1.2c-0.7-0.9-1-2-0.9-3.1L1029.5,5161.7z M1030.9,5161.9c0,0.8,0.2,1.6,0.6,2.2c0.4,0.5,1,0.8,1.6,0.8
		c0.9,0,1.7-0.5,2-1.2v-3.9c-0.4-0.8-1.1-1.2-2-1.2c-0.7,0-1.3,0.3-1.7,0.8C1031.1,5160.2,1030.9,5161,1030.9,5161.9L1030.9,5161.9z
		 M1046.3,5166.2c-1.1,0-2.1-0.4-2.8-1.1c-0.7-0.8-1.1-1.9-1.1-3v-0.3c0-0.8,0.2-1.5,0.5-2.2c0.3-0.6,0.8-1.2,1.3-1.5
		c0.6-0.4,1.2-0.6,1.9-0.6c1-0.1,1.9,0.3,2.6,1.1c0.7,0.9,1,2,0.9,3.1v0.6h-5.7c0,0.7,0.2,1.5,0.7,2c0.5,0.5,1.1,0.8,1.8,0.8
		c0.5,0,0.9-0.1,1.3-0.3c0.4-0.2,0.7-0.5,0.9-0.8l0.9,0.7C1048.8,5165.6,1047.6,5166.2,1046.3,5166.2L1046.3,5166.2z M1046.1,5158.6
		c-0.6,0-1.1,0.2-1.5,0.6c-0.4,0.5-0.7,1.1-0.7,1.8h4.2v-0.1c0-0.6-0.2-1.2-0.6-1.7C1047.2,5158.8,1046.7,5158.6,1046.1,5158.6
		L1046.1,5158.6z M1052.6,5157.5l0,1.1c0.6-0.8,1.5-1.2,2.5-1.2c1.8,0,2.7,1,2.7,3v5.6h-1.4v-5.6c0-0.5-0.1-1-0.4-1.4
		c-0.3-0.3-0.8-0.5-1.3-0.4c-0.4,0-0.9,0.1-1.2,0.4c-0.4,0.3-0.6,0.6-0.8,1v6h-1.4v-8.5L1052.6,5157.5z M1069.3,5166
		c-0.1-0.3-0.2-0.6-0.2-0.9c-0.6,0.7-1.5,1.1-2.4,1c-0.7,0-1.5-0.2-2.1-0.7c-0.5-0.4-0.8-1.1-0.8-1.8c0-0.8,0.3-1.6,1-2.1
		c0.8-0.5,1.8-0.8,2.8-0.7h1.4v-0.7c0-0.4-0.1-0.9-0.5-1.2c-0.4-0.3-0.8-0.5-1.3-0.4c-0.5,0-0.9,0.1-1.3,0.4
		c-0.3,0.2-0.5,0.6-0.5,0.9h-1.4c0-0.4,0.2-0.9,0.4-1.2c0.3-0.4,0.7-0.7,1.2-0.9c0.5-0.2,1.1-0.4,1.7-0.3c0.8,0,1.6,0.2,2.3,0.7
		c0.6,0.5,0.9,1.2,0.9,2v3.9c0,0.6,0.1,1.3,0.3,1.9v0.1H1069.3z M1066.9,5164.9c0.5,0,0.9-0.1,1.3-0.4c0.4-0.2,0.7-0.5,0.9-0.9v-1.7
		h-1.1c-1.8,0-2.7,0.5-2.7,1.6c0,0.4,0.1,0.8,0.5,1.1C1066.1,5164.8,1066.5,5164.9,1066.9,5164.9L1066.9,5164.9z M1074.1,5157.5
		l0,0.9c0.6-0.7,1.5-1.1,2.5-1.1c1-0.1,2,0.4,2.4,1.4c0.3-0.4,0.7-0.7,1.1-1c0.5-0.3,1-0.4,1.6-0.4c1.9,0,2.8,1,2.8,2.9v5.7h-1.4
		v-5.6c0-0.5-0.1-1-0.4-1.4c-0.4-0.3-0.9-0.5-1.4-0.4c-0.5,0-1,0.2-1.3,0.5c-0.4,0.3-0.6,0.8-0.6,1.3v5.6h-1.5v-5.5
		c0.1-0.9-0.5-1.7-1.4-1.8c-0.1,0-0.3,0-0.4,0c-0.8-0.1-1.6,0.4-1.9,1.2v6.2h-1.4v-8.5L1074.1,5157.5z M1093.9,5161.9
		c0.1,1.1-0.3,2.2-0.9,3.1c-0.6,0.8-1.4,1.2-2.4,1.2c-0.9,0-1.8-0.3-2.4-1v4.1h-1.4v-11.7h1.3l0.1,0.9c0.6-0.7,1.5-1.1,2.5-1.1
		c0.9,0,1.8,0.4,2.4,1.1c0.6,0.9,1,2.1,0.9,3.2L1093.9,5161.9z M1092.5,5161.7c0-0.8-0.2-1.6-0.6-2.3c-0.4-0.5-1-0.9-1.7-0.8
		c-0.8,0-1.6,0.4-2,1.2v4c0.4,0.7,1.2,1.2,2,1.2c0.7,0,1.3-0.3,1.7-0.8C1092.3,5163.4,1092.5,5162.6,1092.5,5161.7L1092.5,5161.7z
		 M1099.3,5166.2c-1.1,0-2.1-0.4-2.8-1.1c-0.7-0.8-1.1-1.9-1.1-3v-0.3c0-0.8,0.2-1.5,0.5-2.2c0.3-0.6,0.8-1.2,1.3-1.5
		c0.6-0.4,1.2-0.6,1.9-0.6c1-0.1,1.9,0.3,2.6,1.1c0.7,0.9,1,2,0.9,3.1v0.6h-5.7c0,0.7,0.2,1.5,0.7,2c0.5,0.5,1.1,0.8,1.8,0.8
		c0.5,0,0.9-0.1,1.3-0.3c0.4-0.2,0.7-0.5,0.9-0.8l0.9,0.7C1101.8,5165.6,1100.6,5166.2,1099.3,5166.2L1099.3,5166.2z M1099.1,5158.6
		c-0.6,0-1.1,0.2-1.5,0.6c-0.4,0.5-0.7,1.1-0.7,1.8h4.2v-0.1c0-0.6-0.2-1.2-0.6-1.7C1100.2,5158.8,1099.6,5158.6,1099.1,5158.6
		L1099.1,5158.6z M1108.3,5158.8c-0.2,0-0.5-0.1-0.7-0.1c-0.8-0.1-1.6,0.4-1.9,1.2v6h-1.4v-8.5h1.4l0,1c0.4-0.7,1.2-1.2,2-1.1
		c0.2,0,0.4,0,0.6,0.1L1108.3,5158.8z M1111.2,5166h-1.4v-8.5h1.4V5166z M1109.7,5155.3c0-0.2,0.1-0.4,0.2-0.6
		c0.2-0.2,0.4-0.3,0.6-0.2c0.2,0,0.5,0.1,0.6,0.2c0.1,0.2,0.2,0.4,0.2,0.6c0,0.2-0.1,0.4-0.2,0.6c-0.2,0.2-0.4,0.3-0.6,0.2
		c-0.2,0-0.5-0.1-0.6-0.2C1109.7,5155.7,1109.7,5155.5,1109.7,5155.3L1109.7,5155.3z M1113.2,5161.7c0-0.8,0.2-1.5,0.5-2.2
		c0.3-0.6,0.8-1.2,1.4-1.5c0.6-0.4,1.3-0.6,2-0.5c1.1,0,2.1,0.4,2.8,1.2c0.7,0.9,1.1,2,1.1,3.2v0.1c0,0.8-0.1,1.5-0.5,2.2
		c-0.3,0.6-0.8,1.2-1.4,1.5c-0.6,0.4-1.3,0.6-2,0.5c-1.1,0-2.1-0.4-2.8-1.2C1113.5,5164.1,1113.1,5163,1113.2,5161.7L1113.2,5161.7z
		 M1114.6,5161.9c0,0.8,0.2,1.6,0.7,2.3c0.7,1,2.1,1.1,3.1,0.4c0.1-0.1,0.3-0.3,0.4-0.4c0.5-0.7,0.7-1.6,0.6-2.4
		c0-0.8-0.2-1.6-0.7-2.3c-0.4-0.6-1.1-0.9-1.8-0.9c-0.7,0-1.3,0.3-1.7,0.9C1114.8,5160.1,1114.6,5161,1114.6,5161.9L1114.6,5161.9z
		 M1127.6,5163.8c0-0.4-0.2-0.7-0.4-0.9c-0.5-0.3-1-0.5-1.5-0.6c-0.6-0.1-1.2-0.3-1.7-0.6c-0.4-0.2-0.7-0.4-1-0.8
		c-0.2-0.3-0.3-0.7-0.3-1.1c0-0.7,0.3-1.3,0.9-1.8c0.6-0.5,1.4-0.8,2.2-0.7c0.8,0,1.7,0.2,2.3,0.7c0.6,0.5,0.9,1.2,0.9,1.9h-1.5
		c0-0.4-0.2-0.8-0.5-1c-0.4-0.3-0.8-0.4-1.3-0.4c-0.4,0-0.9,0.1-1.2,0.3c-0.3,0.2-0.5,0.5-0.4,0.9c0,0.3,0.1,0.6,0.4,0.8
		c0.5,0.2,1,0.4,1.5,0.5c0.6,0.1,1.2,0.3,1.8,0.6c0.4,0.2,0.7,0.5,1,0.8c0.2,0.3,0.3,0.7,0.3,1.2c0,0.7-0.3,1.4-0.9,1.8
		c-0.7,0.5-1.5,0.7-2.4,0.7c-0.6,0-1.2-0.1-1.8-0.4c-0.5-0.2-0.9-0.6-1.2-1c-0.3-0.4-0.4-0.9-0.4-1.4h1.4c0,0.5,0.2,0.9,0.6,1.2
		c0.4,0.3,0.9,0.5,1.4,0.4c0.5,0,0.9-0.1,1.3-0.3C1127.4,5164.5,1127.6,5164.1,1127.6,5163.8L1127.6,5163.8z M1130.9,5165.2
		c0-0.2,0.1-0.5,0.2-0.6c0.2-0.2,0.4-0.3,0.7-0.2c0.3,0,0.5,0.1,0.7,0.2c0.2,0.2,0.2,0.4,0.2,0.6c0,0.2-0.1,0.4-0.2,0.6
		c-0.2,0.2-0.4,0.3-0.7,0.2c-0.4,0.1-0.8-0.3-0.9-0.7C1130.9,5165.3,1130.9,5165.3,1130.9,5165.2L1130.9,5165.2z"/>
	<g id="Grupo_54878" transform="translate(-29 -108)">
		<g id="Elipse_4068" transform="translate(569 5251)">
			<circle class="st1" cx="16" cy="16" r="16"/>
			<circle class="st2" cx="16" cy="16" r="14.5"/>
		</g>
		<text transform="matrix(1 0 0 1 577.015 5274)" class="st0 st3 st4">W</text>
	</g>
	<g id="Grupo_54877" transform="translate(85 -108)">
		<g id="Elipse_4069" transform="translate(652 5251)">
			<circle class="st1" cx="16" cy="16" r="16"/>
			<circle class="st2" cx="16" cy="16" r="14.5"/>
		</g>
		<text transform="matrix(1 0 0 1 662.274 5274)" class="st0 st3 st4">V</text>
	</g>
	<g id="Grupo_54876" transform="translate(220 -108)">
		<g id="Elipse_4070" transform="translate(705 5251)">
			<circle class="st1" cx="16" cy="16" r="16"/>
			<circle class="st2" cx="16" cy="16" r="14.5"/>
		</g>
		<text transform="matrix(1 0 0 1 718.552 5273)" class="st0 st3 st4">I</text>
	</g>
</g>
</svg>
