<svg xmlns="http://www.w3.org/2000/svg" width="295" height="167" viewBox="0 0 295 167">
  <g id="Grupo_55472" data-name="Grupo 55472" transform="translate(-1020 -11123)">
    <g id="Grupo_54946" data-name="Grupo 54946" transform="translate(1070 11154)">
      <text id="I" transform="matrix(1, 0, 0, -1, 20.945, 95.944)" fill="#12263f" font-size="18" font-family="Roboto-Black, Roboto" font-weight="800"><tspan x="-2.716" y="19">I</tspan></text>
      <text id="V" transform="translate(162.945 13.944)" fill="#12263f" font-size="18" font-family="Roboto-Black, Roboto" font-weight="800"><tspan x="-5.946" y="19">V</tspan></text>
      <g id="Grupo_54943" data-name="Grupo 54943" transform="translate(13.89 85.944) rotate(90)">
        <rect id="Rectángulo_5261" data-name="Rectángulo 5261" width="7" height="9" transform="translate(0 2.444)" fill="#3d3d3d"/>
        <path id="Polígono_1" data-name="Polígono 1" d="M6.945,0,13.89,11.439H0Z" transform="translate(16) rotate(90)" fill="#3d3d3d"/>
      </g>
      <g id="Grupo_54944" data-name="Grupo 54944" transform="translate(179.945 0)">
        <rect id="Rectángulo_5261-2" data-name="Rectángulo 5261" width="7" height="9" transform="translate(0 2.444)" fill="#3d3d3d"/>
        <path id="Polígono_1-2" data-name="Polígono 1" d="M6.945,0,13.89,11.439H0Z" transform="translate(16) rotate(90)" fill="#3d3d3d"/>
      </g>
      <path id="Trazado_105795" data-name="Trazado 105795" d="M-8300-605v-87h178" transform="translate(8306.944 698.944)" fill="none" stroke="#3d3d3d" stroke-width="2"/>
      <path id="Trazado_105797" data-name="Trazado 105797" d="M5.609,2.49,6.45,3.873l-.065.044L3.263,2.676,0,1.958,3.263,1.24,6.385,0,6.45.033,5.607,1.427Z" transform="translate(12.25 47.382) rotate(-16)" fill="#707070"/>
      <path id="Trazado_105798" data-name="Trazado 105798" d="M5.609,2.49,6.45,3.873l-.065.044L3.263,2.676,0,1.958,3.263,1.24,6.385,0,6.45.033,5.607,1.427Z" transform="matrix(-0.259, 0.966, -0.966, -0.259, 52.172, 11.336)" fill="#707070"/>
      <path id="Trazado_105799" data-name="Trazado 105799" d="M-8213.833-404.833s25.667-5.43,30.5-32.1" transform="translate(8231.945 452.708)" fill="none" stroke="#707070" stroke-width="2"/>
      <text id="_90_" data-name="90°" transform="translate(45.945 31.944)" fill="#12263f" font-size="18" font-family="Roboto-Medium, Roboto" font-weight="500"><tspan x="-13.649" y="19">90°</tspan></text>
      <ellipse id="Elipse_4082" data-name="Elipse 4082" cx="3" cy="3" rx="3" ry="3" transform="translate(3.945 3.944)" fill="#3d3d3d"/>
    </g>
    <g id="Rectángulo_5263" data-name="Rectángulo 5263" transform="translate(1020 11123)" fill="none" stroke="#e9e9e9" stroke-width="3">
      <rect width="295" height="167" rx="7" stroke="none"/>
      <rect x="1.5" y="1.5" width="292" height="164" rx="5.5" fill="none"/>
    </g>
  </g>
</svg>
