<svg xmlns="http://www.w3.org/2000/svg" width="295" height="167" viewBox="0 0 295 167">
  <g id="Grupo_55471" data-name="Grupo 55471" transform="translate(-705 -11123)">
    <g id="Grupo_54945" data-name="Grupo 54945" transform="translate(-13.055 -55)">
      <text id="I" transform="translate(789 11217)" fill="#12263f" font-size="18" font-family="Roboto-Black, Roboto" font-weight="800"><tspan x="-2.716" y="19">I</tspan></text>
      <text id="V" transform="translate(931 11275)" fill="#12263f" font-size="18" font-family="Roboto-Black, Roboto" font-weight="800"><tspan x="-5.946" y="19">V</tspan></text>
      <g id="Grupo_54943" data-name="Grupo 54943" transform="translate(768.11 11224.933) rotate(-90)">
        <rect id="Rectángulo_5261" data-name="Rectángulo 5261" width="7" height="9" transform="translate(-0.068 2.39)" fill="#3d3d3d"/>
        <path id="Polígono_1" data-name="Polígono 1" d="M6.945,0,13.89,11.439H0Z" transform="translate(15.932 -0.056) rotate(90)" fill="#3d3d3d"/>
      </g>
      <g id="Grupo_54944" data-name="Grupo 54944" transform="translate(948.067 11297.11)">
        <rect id="Rectángulo_5261-2" data-name="Rectángulo 5261" width="7" height="9" transform="translate(-0.068 2.39)" fill="#3d3d3d"/>
        <path id="Polígono_1-2" data-name="Polígono 1" d="M6.945,0,13.89,11.439H0Z" transform="translate(15.932 -0.056) rotate(90)" fill="#3d3d3d"/>
      </g>
      <path id="Trazado_105795" data-name="Trazado 105795" d="M-8300-692v87h178" transform="translate(9075 11909)" fill="none" stroke="#3d3d3d" stroke-width="2"/>
      <path id="Trazado_105797" data-name="Trazado 105797" d="M5.609,1.427,6.45.044,6.385,0,3.263,1.24,0,1.958l3.263.718,3.122,1.24.065-.033L5.607,2.49Z" transform="translate(781.384 11259.798) rotate(16)" fill="#707070"/>
      <path id="Trazado_105798" data-name="Trazado 105798" d="M5.609,1.427,6.45.044,6.385,0,3.263,1.24,0,1.958l3.263.718,3.122,1.24.065-.033L5.607,2.49Z" transform="matrix(-0.259, -0.966, 0.966, -0.259, 816.443, 11300.622)" fill="#707070"/>
      <path id="Trazado_105799" data-name="Trazado 105799" d="M-8213.833-436.93s25.666,5.43,30.5,32.1" transform="translate(9000 11700)" fill="none" stroke="#707070" stroke-width="2"/>
      <text id="_90_" data-name="90°" transform="translate(814 11257)" fill="#12263f" font-size="18" font-family="Roboto-Medium, Roboto" font-weight="500"><tspan x="-13.649" y="19">90°</tspan></text>
      <circle id="Elipse_4082" data-name="Elipse 4082" cx="3" cy="3" r="3" transform="translate(772 11301)" fill="#3d3d3d"/>
    </g>
    <g id="Rectángulo_5262" data-name="Rectángulo 5262" transform="translate(705 11123)" fill="none" stroke="#e9e9e9" stroke-width="3">
      <rect width="295" height="167" rx="7" stroke="none"/>
      <rect x="1.5" y="1.5" width="292" height="164" rx="5.5" fill="none"/>
    </g>
  </g>
</svg>
